<svg xmlns="http://www.w3.org/2000/svg" xmlns:xlink="http://www.w3.org/1999/xlink" fill="none" version="1.1" width="78.374267578125" height="75.23095703125" viewBox="0 0 78.374267578125 75.23095703125"><defs><filter id="master_svg0_8837_173050" filterUnits="objectBoundingBox" color-interpolation-filters="sRGB" x="-8" y="-4" width="82.37422180175781" height="79.23094940185547"><feFlood flood-opacity="0" result="BackgroundImageFix"/><feColorMatrix in="SourceAlpha" type="matrix" values="0 0 0 0 0 0 0 0 0 0 0 0 0 0 0 0 0 0 127 0"/><feOffset dy="4" dx="0"/><feGaussianBlur stdDeviation="2"/><feColorMatrix type="matrix" values="0 0 0 0 0.7803921699523926 0 0 0 0 0.8627451062202454 0 0 0 0 0.9058823585510254 0 0 0 0.10000000149011612 0"/><feBlend mode="normal" in2="BackgroundImageFix" result="effect1_dropShadow"/><feBlend mode="normal" in="SourceGraphic" in2="effect1_dropShadow" result="shape"/></filter><linearGradient x1="-0.20000000298023224" y1="-0.09459458291530609" x2="1" y2="1.3108108043670654" id="master_svg1_8779_158773"><stop offset="0%" stop-color="#FFC74F" stop-opacity="1"/><stop offset="100%" stop-color="#FFB035" stop-opacity="1"/></linearGradient><linearGradient x1="-0.20000000298023224" y1="-0.09459458291530609" x2="1" y2="1.3108108043670654" id="master_svg2_8779_158747"><stop offset="0%" stop-color="#FFD171" stop-opacity="1"/><stop offset="100%" stop-color="#FFBA50" stop-opacity="1"/></linearGradient><linearGradient x1="-0.43243247270584106" y1="3.8202692564937024e-8" x2="1" y2="1.310810923576355" id="master_svg3_8779_158556"><stop offset="0%" stop-color="#FFEBC6" stop-opacity="1"/><stop offset="100%" stop-color="#FFC252" stop-opacity="0"/></linearGradient></defs><g><g filter="url(#master_svg0_8837_173050)"><g><path d="M6,16.051299999999998C6,8.29099,12.60372,2,20.7498,2C20.7498,2,36.974599999999995,2,36.974599999999995,2C45.1207,2,51.7245,8.29099,51.7245,16.051299999999998C51.7245,16.051299999999998,51.7245,51.1796,51.7245,51.1796C51.7245,58.9399,45.1207,65.23089999999999,36.974599999999995,65.23089999999999C36.974599999999995,65.23089999999999,20.7498,65.23089999999999,20.7498,65.23089999999999C12.60372,65.23089999999999,6,58.9399,6,51.1796C6,51.1796,6,16.051299999999998,6,16.051299999999998C6,16.051299999999998,6,16.051299999999998,6,16.051299999999998Z" fill="url(#master_svg1_8779_158773)" fill-opacity="0.4000000059604645"/></g><g><path d="M6,25.40637901763916C6,17.26029901763916,12.60372,10.65657901763916,20.7498,10.65657901763916C20.7498,10.65657901763916,57.6244,10.65657901763916,57.6244,10.65657901763916C65.7704,10.65657901763916,72.3742,17.26029901763916,72.3742,25.40637901763916C72.3742,25.40637901763916,72.3742,50.48107901763916,72.3742,50.48107901763916C72.3742,58.62717901763916,65.7704,65.23097901763916,57.6244,65.23097901763916C57.6244,65.23097901763916,20.7498,65.23097901763916,20.7498,65.23097901763916C12.60372,65.23097901763916,6,58.62717901763916,6,50.48107901763916C6,50.48107901763916,6,25.40637901763916,6,25.40637901763916C6,25.40637901763916,6,25.40637901763916,6,25.40637901763916Z" fill="url(#master_svg2_8779_158747)" fill-opacity="1"/></g><g><path d="M11.89993143081665,43.10620187988281C11.89993143081665,38.21853187988281,15.86216143081665,34.25630187988281,20.74983143081665,34.25630187988281C20.74983143081665,34.25630187988281,57.62443143081665,34.25630187988281,57.62443143081665,34.25630187988281C62.51203143081665,34.25630187988281,66.47433143081665,38.21853187988281,66.47433143081665,43.10620187988281C66.47433143081665,43.10620187988281,66.47433143081665,50.481101879882814,66.47433143081665,50.481101879882814C66.47433143081665,55.36880187988281,62.51203143081665,59.33100187988281,57.62443143081665,59.33100187988281C57.62443143081665,59.33100187988281,26.64973143081665,59.33100187988281,26.64973143081665,59.33100187988281C18.50365143081665,59.33100187988281,11.89993143081665,52.72720187988281,11.89993143081665,44.58120187988281C11.89993143081665,44.58120187988281,11.89993143081665,43.10620187988281,11.89993143081665,43.10620187988281C11.89993143081665,43.10620187988281,11.89993143081665,43.10620187988281,11.89993143081665,43.10620187988281Z" fill="url(#master_svg3_8779_158556)" fill-opacity="1"/></g></g><g><path d="M49.6742457397461,35.31497868041992Q50.20564573974609,35.31497868041992,50.69504573974609,35.524678680419925Q51.184445739746096,35.734478680419926,51.53404573974609,36.08397868041992Q51.8835457397461,36.43357868041992,52.0933457397461,36.922978680419924Q52.303045739746096,37.41237868041992,52.303045739746096,37.943778680419925Q52.303045739746096,38.50307868041992,52.0933457397461,38.978478680419926Q51.8835457397461,39.45387868041992,51.53404573974609,39.80347868041992Q51.184445739746096,40.153078680419924,50.69504573974609,40.36277868041992Q50.20564573974609,40.57257868041992,49.6742457397461,40.57257868041992L41.815845739746095,40.57257868041992L41.815845739746095,48.430978680419926Q41.815845739746095,48.99027868041992,41.606045739746094,49.46577868041992Q41.396345739746096,49.941178680419924,41.04674573974609,50.29077868041992Q40.69714573974609,50.640278680419925,40.207745739746095,50.85007868041993Q39.71834573974609,51.059778680419925,39.1870457397461,51.059778680419925Q38.62764573974609,51.059778680419925,38.15224573974609,50.85007868041993Q37.67684573974609,50.640278680419925,37.32724573974609,50.29077868041992Q36.9777457397461,49.941178680419924,36.7679457397461,49.46577868041992Q36.55824573974609,48.99027868041992,36.55824573974609,48.430978680419926L36.55824573974609,40.57257868041992L28.699755739746095,40.57257868041992Q28.140435739746096,40.57257868041992,27.665005739746093,40.36277868041992Q27.189585739746093,40.153078680419924,26.840011739746092,39.80347868041992Q26.490436739746094,39.45387868041992,26.280690739746095,38.978478680419926Q26.070945531383092,38.50307868041992,26.070945739746094,37.943778680419925Q26.070945739746094,37.41237868041992,26.280690739746095,36.922978680419924Q26.490435739746093,36.43357868041992,26.840011739746092,36.08397868041992Q27.189585739746093,35.734478680419926,27.665005739746093,35.524678680419925Q28.140435739746096,35.31497868041992,28.699755739746095,35.31497868041992L36.55824573974609,35.31497868041992L36.55824573974609,27.456488680419923Q36.55824573974609,26.92512868041992,36.7679457397461,26.43572868041992Q36.9777457397461,25.94631868041992,37.32724573974609,25.59674468041992Q37.67684573974609,25.24716868041992,38.15224573974609,25.037423680419923Q38.62764573974609,24.827678719488024,39.1870457397461,24.827678680419922Q40.27764573974609,24.827678680419922,41.04674573974609,25.59674468041992Q41.815845739746095,26.36580868041992,41.815845739746095,27.456488680419923L41.815845739746095,35.31497868041992L49.6742457397461,35.31497868041992Z" fill="#FFFFFF" fill-opacity="1"/></g></g></svg>