<svg xmlns="http://www.w3.org/2000/svg" xmlns:xlink="http://www.w3.org/1999/xlink" fill="none" version="1.1" width="33.087646484375" height="38.084716796875" viewBox="0 0 33.087646484375 38.084716796875"><defs><linearGradient x1="0.08888891339302063" y1="0.033333320170640945" x2="0.5" y2="1" id="master_svg0_8783_160380"><stop offset="0%" stop-color="#5EE48F" stop-opacity="1"/><stop offset="100%" stop-color="#1DD85B" stop-opacity="1"/></linearGradient><linearGradient x1="-0.6060606241226196" y1="1.558823585510254" x2="0.9545454382896423" y2="-0.17647045850753784" id="master_svg1_8783_160048"><stop offset="0%" stop-color="#ADFFD5" stop-opacity="1"/><stop offset="100%" stop-color="#ADFFCE" stop-opacity="0"/></linearGradient></defs><g><g><g><g><path d="M0,7.35281C0,3.29196,3.29196,0,7.35281,0C7.35281,0,19.3805,0,19.3805,0C21.3305,0,23.2008,0.77467,24.5796,2.15359C24.5796,2.15359,30.9341,8.50801,30.9341,8.50801C32.313,9.88688,33.0876,11.7571,33.0876,13.7072C33.0876,13.7072,33.0876,30.7319,33.0876,30.7319C33.0876,34.7927,29.7956,38.0847,25.7348,38.0847C25.7348,38.0847,7.35281,38.0847,7.35281,38.0847C3.29196,38.0847,0,34.7927,0,30.7319C0,30.7319,0,7.35281,0,7.35281C0,7.35281,0,7.35281,0,7.35281Z" fill="url(#master_svg0_8783_160380)" fill-opacity="1"/></g><g><path d="M2.941162109375,24.4777300390625C2.941162109375,22.0412200390625,4.916342109375,20.0660400390625,7.352852109375,20.0660400390625C7.352852109375,20.0660400390625,25.734862109375,20.0660400390625,25.734862109375,20.0660400390625C28.171362109375,20.0660400390625,30.146562109375,22.0412200390625,30.146562109375,24.4777300390625C30.146562109375,24.4777300390625,30.146562109375,28.1541300390625,30.146562109375,28.1541300390625C30.146562109375,30.5906400390625,28.171362109375,32.5658400390625,25.734862109375,32.5658400390625C25.734862109375,32.5658400390625,10.293972109375,32.5658400390625,10.293972109375,32.5658400390625C6.2331221093749996,32.5658400390625,2.941162109375,29.2738200390625,2.941162109375,25.2130100390625C2.941162109375,25.2130100390625,2.941162109375,24.4777300390625,2.941162109375,24.4777300390625C2.941162109375,24.4777300390625,2.941162109375,24.4777300390625,2.941162109375,24.4777300390625Z" fill="url(#master_svg1_8783_160048)" fill-opacity="1"/></g></g></g><g><path d="M8.7768052421875,11.4972389453125L19.4588232421875,9.9715206653125C19.715123242187502,9.9338098453125,19.9451232421875,10.1326839453125,19.9448232421875,10.3917899453125L19.9448232421875,28.1068189453125C19.9449232421875,28.3650189453125,19.7164232421875,28.5635189453125,19.4608232421875,28.5271189453125L8.7748142421875,27.0014189453125C8.3560412421875,26.9419189453125,8.0445800141875,26.5838189453125,8.0438232421875,26.1608189453125L8.0438232421875,12.3377789453125C8.0445795581875,11.9148089453125,8.3560402421875,11.5566689453125,8.7748132421875,11.4972389453125L8.7768052421875,11.4972389453125ZM20.793323242187498,11.600808945312501L24.1933232421875,11.600808945312501C24.6630232421875,11.600808945312501,25.0438232421875,11.9815889453125,25.0438232421875,12.4513089453125L25.0438232421875,26.0493189453125C25.0438232421875,26.5190189453125,24.6630232421875,26.8998189453125,24.1933232421875,26.8998189453125L20.793323242187498,26.8998189453125L20.793323242187498,11.600808945312501ZM15.0151132421875,19.249318945312503L17.3953132421875,15.8493189453125L15.3557132421875,15.8493189453125L13.9953132421875,17.7933089453125L12.6349232421875,15.8493189453125L10.5953132421875,15.8493189453125L12.9755132421875,19.249318945312503L10.5953132421875,22.6493189453125L12.6349232421875,22.6493189453125L13.9953132421875,20.7053189453125L15.3557132421875,22.6493189453125L17.3953132421875,22.6493189453125L15.0151132421875,19.249318945312503Z" fill="#FFFFFF" fill-opacity="1"/></g></g></svg>