<svg xmlns="http://www.w3.org/2000/svg" xmlns:xlink="http://www.w3.org/1999/xlink" fill="none" version="1.1" width="45.087646484375" height="50.084716796875" viewBox="0 0 45.087646484375 50.084716796875"><defs><filter id="master_svg0_8783_159916" filterUnits="objectBoundingBox" color-interpolation-filters="sRGB" x="-8" y="-4" width="49.087646484375" height="54.08472442626953"><feFlood flood-opacity="0" result="BackgroundImageFix"/><feColorMatrix in="SourceAlpha" type="matrix" values="0 0 0 0 0 0 0 0 0 0 0 0 0 0 0 0 0 0 127 0"/><feOffset dy="4" dx="0"/><feGaussianBlur stdDeviation="2"/><feColorMatrix type="matrix" values="0 0 0 0 0.39148372411727905 0 0 0 0 0.16468748450279236 0 0 0 0 0.637499988079071 0 0 0 0.10000000149011612 0"/><feBlend mode="normal" in2="BackgroundImageFix" result="effect1_dropShadow"/><feBlend mode="normal" in="SourceGraphic" in2="effect1_dropShadow" result="shape"/></filter><linearGradient x1="0.08888891339302063" y1="0.033333320170640945" x2="0.5" y2="1" id="master_svg1_8783_160380"><stop offset="0%" stop-color="#5EE48F" stop-opacity="1"/><stop offset="100%" stop-color="#1DD85B" stop-opacity="1"/></linearGradient><linearGradient x1="-0.6060606241226196" y1="1.558823585510254" x2="0.9545454382896423" y2="-0.17647045850753784" id="master_svg2_8783_160048"><stop offset="0%" stop-color="#ADFFD5" stop-opacity="1"/><stop offset="100%" stop-color="#ADFFCE" stop-opacity="0"/></linearGradient></defs><g><g><g><g filter="url(#master_svg0_8783_159916)"><path d="M6,9.35281C6,5.2919599999999996,9.29196,2,13.35281,2C13.35281,2,25.3805,2,25.3805,2C27.3305,2,29.2008,2.77467,30.5796,4.1535899999999994C30.5796,4.1535899999999994,36.9341,10.50801,36.9341,10.50801C38.313,11.88688,39.0876,13.7571,39.0876,15.7072C39.0876,15.7072,39.0876,32.731899999999996,39.0876,32.731899999999996C39.0876,36.7927,35.7956,40.0847,31.7348,40.0847C31.7348,40.0847,13.35281,40.0847,13.35281,40.0847C9.29196,40.0847,6,36.7927,6,32.731899999999996C6,32.731899999999996,6,9.35281,6,9.35281C6,9.35281,6,9.35281,6,9.35281Z" fill="url(#master_svg1_8783_160380)" fill-opacity="1"/></g><g><path d="M8.941162109375,26.4777300390625C8.941162109375,24.0412200390625,10.916342109375,22.0660400390625,13.352852109375,22.0660400390625C13.352852109375,22.0660400390625,31.734862109375,22.0660400390625,31.734862109375,22.0660400390625C34.171362109374996,22.0660400390625,36.146562109375,24.0412200390625,36.146562109375,26.4777300390625C36.146562109375,26.4777300390625,36.146562109375,30.1541300390625,36.146562109375,30.1541300390625C36.146562109375,32.5906400390625,34.171362109374996,34.5658400390625,31.734862109375,34.5658400390625C31.734862109375,34.5658400390625,16.293972109374998,34.5658400390625,16.293972109374998,34.5658400390625C12.233122109375,34.5658400390625,8.941162109375,31.2738200390625,8.941162109375,27.2130100390625C8.941162109375,27.2130100390625,8.941162109375,26.4777300390625,8.941162109375,26.4777300390625C8.941162109375,26.4777300390625,8.941162109375,26.4777300390625,8.941162109375,26.4777300390625Z" fill="url(#master_svg2_8783_160048)" fill-opacity="1"/></g></g></g><g><path d="M14.7768052421875,13.4972389453125L25.4588232421875,11.9715206653125C25.715123242187502,11.9338098453125,25.9451232421875,12.1326839453125,25.9448232421875,12.3917899453125L25.9448232421875,30.1068189453125C25.9449232421875,30.3650189453125,25.7164232421875,30.5635189453125,25.4608232421875,30.5271189453125L14.7748142421875,29.0014189453125C14.3560412421875,28.9419189453125,14.0445800141875,28.5838189453125,14.0438232421875,28.1608189453125L14.0438232421875,14.3377789453125C14.0445795581875,13.9148089453125,14.3560402421875,13.5566689453125,14.7748132421875,13.4972389453125L14.7768052421875,13.4972389453125ZM26.793323242187498,13.600808945312501L30.1933232421875,13.600808945312501C30.6630232421875,13.600808945312501,31.0438232421875,13.9815889453125,31.0438232421875,14.4513089453125L31.0438232421875,28.0493189453125C31.0438232421875,28.5190189453125,30.6630232421875,28.8998189453125,30.1933232421875,28.8998189453125L26.793323242187498,28.8998189453125L26.793323242187498,13.600808945312501ZM21.0151132421875,21.249318945312503L23.3953132421875,17.8493189453125L21.3557132421875,17.8493189453125L19.9953132421875,19.7933089453125L18.6349232421875,17.8493189453125L16.5953132421875,17.8493189453125L18.9755132421875,21.249318945312503L16.5953132421875,24.6493189453125L18.6349232421875,24.6493189453125L19.9953132421875,22.7053189453125L21.3557132421875,24.6493189453125L23.3953132421875,24.6493189453125L21.0151132421875,21.249318945312503Z" fill="#FFFFFF" fill-opacity="1"/></g></g></svg>