<svg xmlns="http://www.w3.org/2000/svg" xmlns:xlink="http://www.w3.org/1999/xlink" fill="none" version="1.1" width="60" height="57.726806640625" viewBox="0 0 60 57.726806640625"><defs><filter id="master_svg0_8804_161057" filterUnits="objectBoundingBox" color-interpolation-filters="sRGB" x="-8" y="-4" width="64" height="61.72686767578125"><feFlood flood-opacity="0" result="BackgroundImageFix"/><feColorMatrix in="SourceAlpha" type="matrix" values="0 0 0 0 0 0 0 0 0 0 0 0 0 0 0 0 0 0 127 0"/><feOffset dy="4" dx="0"/><feGaussianBlur stdDeviation="2"/><feColorMatrix type="matrix" values="0 0 0 0 0.7803921699523926 0 0 0 0 0.8627451062202454 0 0 0 0 0.9058823585510254 0 0 0 0.10000000149011612 0"/><feBlend mode="normal" in2="BackgroundImageFix" result="effect1_dropShadow"/><feBlend mode="normal" in="SourceGraphic" in2="effect1_dropShadow" result="shape"/></filter><linearGradient x1="-0.20000000298023224" y1="-0.09459458291530609" x2="1" y2="1.3108108043670654" id="master_svg1_8779_158773"><stop offset="0%" stop-color="#FFC74F" stop-opacity="1"/><stop offset="100%" stop-color="#FFB035" stop-opacity="1"/></linearGradient><linearGradient x1="-0.20000000298023224" y1="-0.09459458291530609" x2="1" y2="1.3108108043670654" id="master_svg2_8779_158747"><stop offset="0%" stop-color="#FFD171" stop-opacity="1"/><stop offset="100%" stop-color="#FFBA50" stop-opacity="1"/></linearGradient><linearGradient x1="-0.43243247270584106" y1="3.8202692564937024e-8" x2="1" y2="1.310810923576355" id="master_svg3_8779_158556"><stop offset="0%" stop-color="#FFEBC6" stop-opacity="1"/><stop offset="100%" stop-color="#FFC252" stop-opacity="0"/></linearGradient></defs><g filter="url(#master_svg0_8804_161057)"><g><path d="M6,12.1615C6,6.54947,10.77563,2,16.6667,2C16.6667,2,28.4,2,28.4,2C34.291,2,39.0667,6.54947,39.0667,12.1615C39.0667,12.1615,39.0667,37.5653,39.0667,37.5653C39.0667,43.1773,34.291,47.7269,28.4,47.7269C28.4,47.7269,16.6667,47.7269,16.6667,47.7269C10.77563,47.7269,6,43.1773,6,37.5653C6,37.5653,6,12.1615,6,12.1615C6,12.1615,6,12.1615,6,12.1615Z" fill="url(#master_svg1_8779_158773)" fill-opacity="0.4000000059604645"/></g><g><path d="M6,18.92689763946533C6,13.035827639465332,10.77563,8.260197639465332,16.6667,8.260197639465332C16.6667,8.260197639465332,43.3333,8.260197639465332,43.3333,8.260197639465332C49.2243,8.260197639465332,54,13.035827639465332,54,18.92689763946533C54,18.92689763946533,54,37.06019763946533,54,37.06019763946533C54,42.951197639465335,49.2243,47.726897639465335,43.3333,47.726897639465335C43.3333,47.726897639465335,16.6667,47.726897639465335,16.6667,47.726897639465335C10.77563,47.726897639465335,6,42.951197639465335,6,37.06019763946533C6,37.06019763946533,6,18.92689763946533,6,18.92689763946533C6,18.92689763946533,6,18.92689763946533,6,18.92689763946533Z" fill="url(#master_svg2_8779_158747)" fill-opacity="1"/></g><g><path d="M10.266666889190674,31.726862335205077C10.266666889190674,28.19224233520508,13.132046889190674,25.326862335205078,16.666666889190672,25.326862335205078C16.666666889190672,25.326862335205078,43.33336688919067,25.326862335205078,43.33336688919067,25.326862335205078C46.867966889190676,25.326862335205078,49.73336688919068,28.19224233520508,49.73336688919068,31.726862335205077C49.73336688919068,31.726862335205077,49.73336688919068,37.06016233520508,49.73336688919068,37.06016233520508C49.73336688919068,40.59486233520508,46.867966889190676,43.46016233520508,43.33336688919067,43.46016233520508C43.33336688919067,43.46016233520508,20.933366889190673,43.46016233520508,20.933366889190673,43.46016233520508C15.042296889190673,43.46016233520508,10.266666889190674,38.68456233520508,10.266666889190674,32.79353233520508C10.266666889190674,32.79353233520508,10.266666889190674,31.726862335205077,10.266666889190674,31.726862335205077C10.266666889190674,31.726862335205077,10.266666889190674,31.726862335205077,10.266666889190674,31.726862335205077Z" fill="url(#master_svg3_8779_158556)" fill-opacity="1"/></g></g></svg>