<svg xmlns="http://www.w3.org/2000/svg" xmlns:xlink="http://www.w3.org/1999/xlink" fill="none" version="1.1" width="32.11529541015625" height="31.1627197265625" viewBox="0 0 32.11529541015625 31.1627197265625"><defs><filter id="master_svg0_8804_161070" filterUnits="objectBoundingBox" color-interpolation-filters="sRGB" x="-8" y="-4" width="36.11529541015625" height="35.16269874572754"><feFlood flood-opacity="0" result="BackgroundImageFix"/><feColorMatrix in="SourceAlpha" type="matrix" values="0 0 0 0 0 0 0 0 0 0 0 0 0 0 0 0 0 0 127 0"/><feOffset dy="4" dx="0"/><feGaussianBlur stdDeviation="2"/><feColorMatrix type="matrix" values="0 0 0 0 0.7803921699523926 0 0 0 0 0.8627451062202454 0 0 0 0 0.9058823585510254 0 0 0 0.10000000149011612 0"/><feBlend mode="normal" in2="BackgroundImageFix" result="effect1_dropShadow"/><feBlend mode="normal" in="SourceGraphic" in2="effect1_dropShadow" result="shape"/></filter><linearGradient x1="-0.20000000298023224" y1="-0.09459458291530609" x2="1" y2="1.3108108043670654" id="master_svg1_8779_158773"><stop offset="0%" stop-color="#FFC74F" stop-opacity="1"/><stop offset="100%" stop-color="#FFB035" stop-opacity="1"/></linearGradient><linearGradient x1="-0.20000000298023224" y1="-0.09459458291530609" x2="1" y2="1.3108108043670654" id="master_svg2_8779_158747"><stop offset="0%" stop-color="#FFD171" stop-opacity="1"/><stop offset="100%" stop-color="#FFBA50" stop-opacity="1"/></linearGradient><linearGradient x1="-0.43243247270584106" y1="3.8202692564937024e-8" x2="1" y2="1.310810923576355" id="master_svg3_8779_158556"><stop offset="0%" stop-color="#FFEBC6" stop-opacity="1"/><stop offset="100%" stop-color="#FFC252" stop-opacity="0"/></linearGradient></defs><g filter="url(#master_svg0_8804_161070)"><g><path d="M6,6.25838C6,3.9065399999999997,8.00132,2,10.47007,2C10.47007,2,15.38714,2,15.38714,2C17.8559,2,19.8572,3.9065399999999997,19.8572,6.25838C19.8572,6.25838,19.8572,16.9043,19.8572,16.9043C19.8572,19.2561,17.8559,21.1627,15.38714,21.1627C15.38714,21.1627,10.47007,21.1627,10.47007,21.1627C8.00132,21.1627,6,19.2561,6,16.9043C6,16.9043,6,6.25838,6,6.25838C6,6.25838,6,6.25838,6,6.25838Z" fill="url(#master_svg1_8779_158773)" fill-opacity="0.4000000059604645"/></g><g><path d="M6,9.09352266342163C6,6.624772663421631,8.00132,4.623452663421631,10.47007,4.623452663421631C10.47007,4.623452663421631,21.645200000000003,4.623452663421631,21.645200000000003,4.623452663421631C24.114,4.623452663421631,26.1153,6.624772663421631,26.1153,9.09352266342163C26.1153,9.09352266342163,26.1153,16.692652663421633,26.1153,16.692652663421633C26.1153,19.16135266342163,24.114,21.162652663421632,21.645200000000003,21.162652663421632C21.645200000000003,21.162652663421632,10.47007,21.162652663421632,10.47007,21.162652663421632C8.00132,21.162652663421632,6,19.16135266342163,6,16.692652663421633C6,16.692652663421633,6,9.09352266342163,6,9.09352266342163C6,9.09352266342163,6,9.09352266342163,6,9.09352266342163Z" fill="url(#master_svg2_8779_158747)" fill-opacity="1"/></g><g><path d="M7.788026332855225,14.457596564331055C7.788026332855225,12.976346564331054,8.988816332855224,11.775556564331055,10.470066332855225,11.775556564331055C10.470066332855225,11.775556564331055,21.645226332855223,11.775556564331055,21.645226332855223,11.775556564331055C23.126526332855224,11.775556564331055,24.327226332855226,12.976346564331054,24.327226332855226,14.457596564331055C24.327226332855226,14.457596564331055,24.327226332855226,16.692626564331054,24.327226332855226,16.692626564331054C24.327226332855226,18.173876564331053,23.126526332855224,19.374666564331054,21.645226332855223,19.374666564331054C21.645226332855223,19.374666564331054,12.258096332855224,19.374666564331054,12.258096332855224,19.374666564331054C9.789346332855224,19.374666564331054,7.788026332855225,17.373326564331055,7.788026332855225,14.904606564331054C7.788026332855225,14.904606564331054,7.788026332855225,14.457596564331055,7.788026332855225,14.457596564331055C7.788026332855225,14.457596564331055,7.788026332855225,14.457596564331055,7.788026332855225,14.457596564331055Z" fill="url(#master_svg3_8779_158556)" fill-opacity="1"/></g></g></svg>