<svg xmlns="http://www.w3.org/2000/svg" xmlns:xlink="http://www.w3.org/1999/xlink" fill="none" version="1.1" width="33.087646484375" height="38.084716796875" viewBox="0 0 33.087646484375 38.084716796875"><defs><linearGradient x1="0.08888891339302063" y1="0.033333320170640945" x2="0.5" y2="1" id="master_svg0_8819_163278"><stop offset="0%" stop-color="#9B8AFF" stop-opacity="1"/><stop offset="100%" stop-color="#8250FF" stop-opacity="1"/></linearGradient><linearGradient x1="-0.6060606241226196" y1="1.558823585510254" x2="0.9545454382896423" y2="-0.17647045850753784" id="master_svg1_8819_163296"><stop offset="0%" stop-color="#B7AAFF" stop-opacity="1"/><stop offset="100%" stop-color="#ABAAFF" stop-opacity="0"/></linearGradient></defs><g><g><g><g><path d="M0,7.35281C0,3.29196,3.29196,0,7.35281,0C7.35281,0,19.3805,0,19.3805,0C21.3305,0,23.2008,0.77467,24.5796,2.15359C24.5796,2.15359,30.9341,8.50801,30.9341,8.50801C32.313,9.88688,33.0876,11.7571,33.0876,13.7072C33.0876,13.7072,33.0876,30.7319,33.0876,30.7319C33.0876,34.7927,29.7956,38.0847,25.7348,38.0847C25.7348,38.0847,7.35281,38.0847,7.35281,38.0847C3.29196,38.0847,0,34.7927,0,30.7319C0,30.7319,0,7.35281,0,7.35281C0,7.35281,0,7.35281,0,7.35281Z" fill="url(#master_svg0_8819_163278)" fill-opacity="1"/></g><g><path d="M2.941162109375,24.4777300390625C2.941162109375,22.0412200390625,4.916342109375,20.0660400390625,7.352852109375,20.0660400390625C7.352852109375,20.0660400390625,25.734862109375,20.0660400390625,25.734862109375,20.0660400390625C28.171362109375,20.0660400390625,30.146562109375,22.0412200390625,30.146562109375,24.4777300390625C30.146562109375,24.4777300390625,30.146562109375,28.1541300390625,30.146562109375,28.1541300390625C30.146562109375,30.5906400390625,28.171362109375,32.5658400390625,25.734862109375,32.5658400390625C25.734862109375,32.5658400390625,10.293972109375,32.5658400390625,10.293972109375,32.5658400390625C6.2331221093749996,32.5658400390625,2.941162109375,29.2738200390625,2.941162109375,25.2130100390625C2.941162109375,25.2130100390625,2.941162109375,24.4777300390625,2.941162109375,24.4777300390625C2.941162109375,24.4777300390625,2.941162109375,24.4777300390625,2.941162109375,24.4777300390625Z" fill="url(#master_svg1_8819_163296)" fill-opacity="1"/></g></g></g><g><path d="M12.175111171874999,11.1641845703125L8.886921171875,11.1641845703125C8.283940171875,11.1641845703125,7.793701171875,11.6527155703125,7.793701171875,12.2574045703125L7.793701171875,27.5453845703125C7.793701171875,28.1482845703125,8.283940171875,28.6385845703125,8.886921171875,28.6385845703125L12.175111171874999,28.6385845703125C12.778081171875,28.6385845703125,13.268321171875,28.1482845703125,13.268321171875,27.5453845703125L13.268321171875,12.2574045703125C13.268321171875,11.6527155703125,12.778081171875,11.1641845703125,12.175111171874999,11.1641845703125ZM9.988671171875,25.9140845703125C9.988671171875,25.763784570312502,10.050171171875,25.627084570312498,10.149241171875,25.527984570312498C10.248311171875,25.4289845703125,10.384961171875,25.3674845703125,10.535281171874999,25.3674845703125C10.685601171875,25.3674845703125,10.822251171875,25.4289845703125,10.921321171875,25.527984570312498C11.020401171875001,25.627084570312498,11.081891171875,25.763784570312502,11.081891171875,25.9140845703125C11.081891171875,26.064384570312498,11.020401171875001,26.2009845703125,10.921321171875,26.3000845703125C10.822251171875,26.3991845703125,10.685601171875,26.4606845703125,10.535281171874999,26.4606845703125C10.232941171875,26.4606845703125,9.988671171875,26.2163845703125,9.988671171875,25.9140845703125ZM11.081891171875,21.9511845703125C11.081891171875,22.026284570312498,11.020401171875001,22.0877845703125,10.945241171875,22.0877845703125L10.125331171875,22.0877845703125C10.050171171875,22.0877845703125,9.988671171875,22.026284570312498,9.988671171875,21.9511845703125L9.988671171875,13.478724570312501C9.988671171875,13.4035745703125,10.050171171875,13.3420745703125,10.125331171875,13.3420745703125L10.945241171875,13.3420745703125C11.020401171875001,13.3420745703125,11.081891171875,13.4035745703125,11.081891171875,13.478724570312501L11.081891171875,21.9511845703125ZM18.187801171875,11.1641845703125L14.899611171875,11.1641845703125C14.296631171875,11.1641845703125,13.806391171875,11.6527155703125,13.806391171875,12.2574045703125L13.806391171875,27.5453845703125C13.806391171875,28.1482845703125,14.296631171875,28.6385845703125,14.899611171875,28.6385845703125L18.187801171875,28.6385845703125C18.790801171875,28.6385845703125,19.281001171874998,28.1482845703125,19.281001171874998,27.5453845703125L19.281001171874998,12.2574045703125C19.281001171874998,11.6527155703125,18.790801171875,11.1641845703125,18.187801171875,11.1641845703125ZM16.001361171875,25.9140845703125C16.001361171875,25.763784570312502,16.062861171875,25.627084570312498,16.161931171875,25.527984570312498C16.261001171875,25.4289845703125,16.397651171874998,25.3674845703125,16.547971171874998,25.3674845703125C16.698291171875,25.3674845703125,16.834941171875002,25.4289845703125,16.934011171875,25.527984570312498C17.033091171875,25.627084570312498,17.094581171875,25.763784570312502,17.094581171875,25.9140845703125C17.094581171875,26.064384570312498,17.033091171875,26.2009845703125,16.934011171875,26.3000845703125C16.834941171875002,26.3991845703125,16.698291171875,26.4606845703125,16.547971171874998,26.4606845703125C16.245631171875,26.4606845703125,16.001361171875,26.2163845703125,16.001361171875,25.9140845703125ZM17.094581171875,21.9511845703125C17.094581171875,22.026284570312498,17.033091171875,22.0877845703125,16.957931171875,22.0877845703125L16.138011171875,22.0877845703125C16.062861171875,22.0877845703125,16.001361171875,22.026284570312498,16.001361171875,21.9511845703125L16.001361171875,13.478724570312501C16.001361171875,13.4035745703125,16.062861171875,13.3420745703125,16.138011171875,13.3420745703125L16.957931171875,13.3420745703125C17.033091171875,13.3420745703125,17.094581171875,13.4035745703125,17.094581171875,13.478724570312501L17.094581171875,21.9511845703125ZM24.200501171875,11.1641845703125L20.912301171875,11.1641845703125C20.309301171875,11.1641845703125,19.819101171874998,11.6527155703125,19.819101171874998,12.2574045703125L19.819101171874998,27.5453845703125C19.819101171874998,28.1482845703125,20.309301171875,28.6385845703125,20.912301171875,28.6385845703125L24.200501171875,28.6385845703125C24.803501171875,28.6385845703125,25.293701171875,28.1482845703125,25.293701171875,27.5453845703125L25.293701171875,12.2574045703125C25.293701171875,11.6527155703125,24.803501171875,11.1641845703125,24.200501171875,11.1641845703125ZM22.014101171874998,25.9140845703125C22.014101171874998,25.763784570312502,22.075501171875,25.627084570312498,22.174601171875,25.527984570312498C22.273701171875,25.4289845703125,22.410301171875,25.3674845703125,22.560701171875,25.3674845703125C22.711001171874997,25.3674845703125,22.847601171875,25.4289845703125,22.946701171875,25.527984570312498C23.045801171875,25.627084570312498,23.107301171875,25.763784570312502,23.107301171875,25.9140845703125C23.107301171875,26.064384570312498,23.045801171875,26.2009845703125,22.946701171875,26.3000845703125C22.847601171875,26.3991845703125,22.711001171874997,26.4606845703125,22.560701171875,26.4606845703125C22.258301171875,26.4606845703125,22.014101171874998,26.2163845703125,22.014101171874998,25.9140845703125ZM23.107301171875,21.9511845703125C23.107301171875,22.026284570312498,23.045801171875,22.0877845703125,22.970601171875,22.0877845703125L22.150701171875,22.0877845703125C22.075501171875,22.0877845703125,22.014101171874998,22.026284570312498,22.014101171874998,21.9511845703125L22.014101171874998,13.478724570312501C22.014101171874998,13.4035745703125,22.075501171875,13.3420745703125,22.150701171875,13.3420745703125L22.970601171875,13.3420745703125C23.045801171875,13.3420745703125,23.107301171875,13.4035745703125,23.107301171875,13.478724570312501L23.107301171875,21.9511845703125Z" fill="#FFFFFF" fill-opacity="1"/></g></g></svg>