<svg xmlns="http://www.w3.org/2000/svg" xmlns:xlink="http://www.w3.org/1999/xlink" fill="none" version="1.1" width="45.087646484375" height="50.084716796875" viewBox="0 0 45.087646484375 50.084716796875"><defs><filter id="master_svg0_8779_158062" filterUnits="objectBoundingBox" color-interpolation-filters="sRGB" x="-8" y="-4" width="49.087646484375" height="54.08472442626953"><feFlood flood-opacity="0" result="BackgroundImageFix"/><feColorMatrix in="SourceAlpha" type="matrix" values="0 0 0 0 0 0 0 0 0 0 0 0 0 0 0 0 0 0 127 0"/><feOffset dy="4" dx="0"/><feGaussianBlur stdDeviation="2"/><feColorMatrix type="matrix" values="0 0 0 0 0.39148372411727905 0 0 0 0 0.16468748450279236 0 0 0 0 0.637499988079071 0 0 0 0.10000000149011612 0"/><feBlend mode="normal" in2="BackgroundImageFix" result="effect1_dropShadow"/><feBlend mode="normal" in="SourceGraphic" in2="effect1_dropShadow" result="shape"/></filter><linearGradient x1="0.08888891339302063" y1="0.033333320170640945" x2="0.5" y2="1" id="master_svg1_8779_158328"><stop offset="0%" stop-color="#C38CFD" stop-opacity="1"/><stop offset="100%" stop-color="#B672FF" stop-opacity="1"/></linearGradient><linearGradient x1="-0.6060606241226196" y1="1.558823585510254" x2="0.9545454382896423" y2="-0.17647045850753784" id="master_svg2_8779_158072"><stop offset="0%" stop-color="#D5ADFF" stop-opacity="1"/><stop offset="100%" stop-color="#D5ADFF" stop-opacity="0"/></linearGradient><linearGradient x1="0.5" y1="-3.0616171314629196e-17" x2="0.5" y2="1" id="master_svg3_8779_158069"><stop offset="0%" stop-color="#FFFFFF" stop-opacity="1"/><stop offset="100%" stop-color="#FFFFFF" stop-opacity="0.800000011920929"/></linearGradient></defs><g><g filter="url(#master_svg0_8779_158062)"><path d="M6,9.35281C6,5.2919599999999996,9.29196,2,13.35281,2C13.35281,2,25.3805,2,25.3805,2C27.3305,2,29.2008,2.77467,30.5796,4.1535899999999994C30.5796,4.1535899999999994,36.9341,10.50801,36.9341,10.50801C38.313,11.88688,39.0876,13.7571,39.0876,15.7072C39.0876,15.7072,39.0876,32.731899999999996,39.0876,32.731899999999996C39.0876,36.7927,35.7956,40.0847,31.7348,40.0847C31.7348,40.0847,13.35281,40.0847,13.35281,40.0847C9.29196,40.0847,6,36.7927,6,32.731899999999996C6,32.731899999999996,6,9.35281,6,9.35281C6,9.35281,6,9.35281,6,9.35281Z" fill="url(#master_svg1_8779_158328)" fill-opacity="1"/></g><g><path d="M8.941162109375,26.4777300390625C8.941162109375,24.0412200390625,10.916342109375,22.0660400390625,13.352852109375,22.0660400390625C13.352852109375,22.0660400390625,31.734862109375,22.0660400390625,31.734862109375,22.0660400390625C34.171362109374996,22.0660400390625,36.146562109375,24.0412200390625,36.146562109375,26.4777300390625C36.146562109375,26.4777300390625,36.146562109375,30.1541300390625,36.146562109375,30.1541300390625C36.146562109375,32.5906400390625,34.171362109374996,34.5658400390625,31.734862109375,34.5658400390625C31.734862109375,34.5658400390625,16.293972109374998,34.5658400390625,16.293972109374998,34.5658400390625C12.233122109375,34.5658400390625,8.941162109375,31.2738200390625,8.941162109375,27.2130100390625C8.941162109375,27.2130100390625,8.941162109375,26.4777300390625,8.941162109375,26.4777300390625C8.941162109375,26.4777300390625,8.941162109375,26.4777300390625,8.941162109375,26.4777300390625Z" fill="url(#master_svg2_8779_158072)" fill-opacity="1"/></g><g><path d="M25.48499109375,18.4947005078125C25.48499109375,19.1038205078125,25.97881109375,19.5976205078125,26.587921093749998,19.5976205078125C27.19702109375,19.5976205078125,27.69082109375,19.1038205078125,27.69082109375,18.4947005078125C27.69082109375,18.4947005078125,25.48499109375,18.4947005078125,25.48499109375,18.4947005078125C25.48499109375,18.4947005078125,25.48499109375,18.4947005078125,25.48499109375,18.4947005078125ZM16.66162109375,18.4947005078125C16.66162109375,19.1038205078125,17.15541609375,19.5976205078125,17.76454109375,19.5976205078125C18.37367109375,19.5976205078125,18.86746109375,19.1038205078125,18.86746109375,18.4947005078125C18.86746109375,18.4947005078125,16.66162109375,18.4947005078125,16.66162109375,18.4947005078125C16.66162109375,18.4947005078125,16.66162109375,18.4947005078125,16.66162109375,18.4947005078125ZM19.97038109375,27.948270507812502C19.97038109375,27.948270507812502,19.97038109375,26.8453705078125,19.97038109375,26.8453705078125C19.97038109375,26.8453705078125,19.97038109375,26.8453705078125,19.97038109375,26.8453705078125C19.97038109375,26.8453705078125,19.97038109375,27.948270507812502,19.97038109375,27.948270507812502C19.97038109375,27.948270507812502,19.97038109375,27.948270507812502,19.97038109375,27.948270507812502ZM24.38207109375,27.948270507812502C24.38207109375,27.948270507812502,24.38207109375,29.0512705078125,24.38207109375,29.0512705078125C24.38207109375,29.0512705078125,24.38207109375,29.0512705078125,24.38207109375,29.0512705078125C24.38207109375,29.0512705078125,24.38207109375,27.948270507812502,24.38207109375,27.948270507812502C24.38207109375,27.948270507812502,24.38207109375,27.948270507812502,24.38207109375,27.948270507812502ZM17.76454109375,25.8475705078125C17.76454109375,25.8475705078125,18.86746109375,25.8475705078125,18.86746109375,25.8475705078125C18.86746109375,25.8475705078125,17.76454109375,25.8475705078125,17.76454109375,25.8475705078125C17.76454109375,25.8475705078125,17.76454109375,25.8475705078125,17.76454109375,25.8475705078125ZM18.86746109375,22.6962705078125C18.86746109375,22.087170507812502,18.37367109375,21.593350507812502,17.76454109375,21.593350507812502C17.15541709375,21.593350507812502,16.66162109375,22.087170507812502,16.66162109375,22.6962705078125C16.66162109375,22.6962705078125,18.86746109375,22.6962705078125,18.86746109375,22.6962705078125C18.86746109375,22.6962705078125,18.86746109375,22.6962705078125,18.86746109375,22.6962705078125ZM27.69082109375,22.6962705078125C27.69082109375,22.087170507812502,27.19702109375,21.593350507812502,26.587921093749998,21.593350507812502C25.97881109375,21.593350507812502,25.48499109375,22.087170507812502,25.48499109375,22.6962705078125C25.48499109375,22.6962705078125,27.69082109375,22.6962705078125,27.69082109375,22.6962705078125C27.69082109375,22.6962705078125,27.69082109375,22.6962705078125,27.69082109375,22.6962705078125ZM26.587921093749998,25.8475705078125C26.587921093749998,25.8475705078125,27.69082109375,25.8475705078125,27.69082109375,25.8475705078125C27.69082109375,25.8475705078125,27.69082109375,25.8475705078125,27.69082109375,25.8475705078125C27.69082109375,25.8475705078125,26.587921093749998,25.8475705078125,26.587921093749998,25.8475705078125C26.587921093749998,25.8475705078125,26.587921093749998,25.8475705078125,26.587921093749998,25.8475705078125ZM23.279151093750002,17.4443005078125C23.279151093750002,16.8351705078125,22.785361093749998,16.3413805078125,22.17623109375,16.3413805078125C21.56710109375,16.3413805078125,21.07331109375,16.8351705078125,21.07331109375,17.4443005078125C21.07331109375,17.4443005078125,23.279151093750002,17.4443005078125,23.279151093750002,17.4443005078125C23.279151093750002,17.4443005078125,23.279151093750002,17.4443005078125,23.279151093750002,17.4443005078125ZM21.07331109375,23.7466705078125C21.07331109375,24.3557705078125,21.56710109375,24.8495705078125,22.17623109375,24.8495705078125C22.785361093749998,24.8495705078125,23.279151093750002,24.3557705078125,23.279151093750002,23.7466705078125C23.279151093750002,23.7466705078125,21.07331109375,23.7466705078125,21.07331109375,23.7466705078125C21.07331109375,23.7466705078125,21.07331109375,23.7466705078125,21.07331109375,23.7466705078125ZM24.38207109375,12.1397705078125C24.38207109375,12.1397705078125,19.97038109375,12.1397705078125,19.97038109375,12.1397705078125C19.97038109375,12.1397705078125,19.97038109375,14.3456105078125,19.97038109375,14.3456105078125C19.97038109375,14.3456105078125,24.38207109375,14.3456105078125,24.38207109375,14.3456105078125C24.38207109375,14.3456105078125,24.38207109375,12.1397705078125,24.38207109375,12.1397705078125C24.38207109375,12.1397705078125,24.38207109375,12.1397705078125,24.38207109375,12.1397705078125ZM25.48499109375,15.3434905078125C25.48499109375,15.3434905078125,25.48499109375,18.4947005078125,25.48499109375,18.4947005078125C25.48499109375,18.4947005078125,27.69082109375,18.4947005078125,27.69082109375,18.4947005078125C27.69082109375,18.4947005078125,27.69082109375,15.3434905078125,27.69082109375,15.3434905078125C27.69082109375,15.3434905078125,25.48499109375,15.3434905078125,25.48499109375,15.3434905078125C25.48499109375,15.3434905078125,25.48499109375,15.3434905078125,25.48499109375,15.3434905078125ZM18.86746109375,18.4947005078125C18.86746109375,18.4947005078125,18.86746109375,15.3434905078125,18.86746109375,15.3434905078125C18.86746109375,15.3434905078125,16.66162109375,15.3434905078125,16.66162109375,15.3434905078125C16.66162109375,15.3434905078125,16.66162109375,18.4947005078125,16.66162109375,18.4947005078125C16.66162109375,18.4947005078125,18.86746109375,18.4947005078125,18.86746109375,18.4947005078125C18.86746109375,18.4947005078125,18.86746109375,18.4947005078125,18.86746109375,18.4947005078125ZM24.38207109375,14.3456105078125C25.04252109375,14.3456105078125,25.48499109375,14.8424705078125,25.48499109375,15.3434905078125C25.48499109375,15.3434905078125,27.69082109375,15.3434905078125,27.69082109375,15.3434905078125C27.69082109375,13.5240405078125,26.15814109375,12.1397705078125,24.38207109375,12.1397705078125C24.38207109375,12.1397705078125,24.38207109375,14.3456105078125,24.38207109375,14.3456105078125C24.38207109375,14.3456105078125,24.38207109375,14.3456105078125,24.38207109375,14.3456105078125ZM19.97038109375,12.1397705078125C18.19433109375,12.1397705078125,16.66162109375,13.5240405078125,16.66162109375,15.3434905078125C16.66162109375,15.3434905078125,18.86746109375,15.3434905078125,18.86746109375,15.3434905078125C18.86746109375,14.8424705078125,19.30993109375,14.3456105078125,19.97038109375,14.3456105078125C19.97038109375,14.3456105078125,19.97038109375,12.1397705078125,19.97038109375,12.1397705078125C19.97038109375,12.1397705078125,19.97038109375,12.1397705078125,19.97038109375,12.1397705078125ZM19.97038109375,29.0512705078125C19.97038109375,29.0512705078125,24.38207109375,29.0512705078125,24.38207109375,29.0512705078125C24.38207109375,29.0512705078125,24.38207109375,26.8453705078125,24.38207109375,26.8453705078125C24.38207109375,26.8453705078125,19.97038109375,26.8453705078125,19.97038109375,26.8453705078125C19.97038109375,26.8453705078125,19.97038109375,29.0512705078125,19.97038109375,29.0512705078125C19.97038109375,29.0512705078125,19.97038109375,29.0512705078125,19.97038109375,29.0512705078125ZM18.86746109375,25.8475705078125C18.86746109375,25.8475705078125,18.86746109375,22.6962705078125,18.86746109375,22.6962705078125C18.86746109375,22.6962705078125,16.66162109375,22.6962705078125,16.66162109375,22.6962705078125C16.66162109375,22.6962705078125,16.66162109375,25.8475705078125,16.66162109375,25.8475705078125C16.66162109375,25.8475705078125,18.86746109375,25.8475705078125,18.86746109375,25.8475705078125C18.86746109375,25.8475705078125,18.86746109375,25.8475705078125,18.86746109375,25.8475705078125ZM25.48499109375,22.6962705078125C25.48499109375,22.6962705078125,25.48499109375,25.8475705078125,25.48499109375,25.8475705078125C25.48499109375,25.8475705078125,27.69082109375,25.8475705078125,27.69082109375,25.8475705078125C27.69082109375,25.8475705078125,27.69082109375,22.6962705078125,27.69082109375,22.6962705078125C27.69082109375,22.6962705078125,25.48499109375,22.6962705078125,25.48499109375,22.6962705078125C25.48499109375,22.6962705078125,25.48499109375,22.6962705078125,25.48499109375,22.6962705078125ZM19.97038109375,26.8453705078125C19.30993109375,26.8453705078125,18.86746109375,26.3485705078125,18.86746109375,25.8475705078125C18.86746109375,25.8475705078125,16.66162109375,25.8475705078125,16.66162109375,25.8475705078125C16.66162109375,27.6669705078125,18.19433109375,29.0512705078125,19.97038109375,29.0512705078125C19.97038109375,29.0512705078125,19.97038109375,26.8453705078125,19.97038109375,26.8453705078125C19.97038109375,26.8453705078125,19.97038109375,26.8453705078125,19.97038109375,26.8453705078125ZM24.38207109375,29.0512705078125C26.15814109375,29.0512705078125,27.69082109375,27.6669705078125,27.69082109375,25.8475705078125C27.69082109375,25.8475705078125,25.48499109375,25.8475705078125,25.48499109375,25.8475705078125C25.48499109375,26.3485705078125,25.04252109375,26.8453705078125,24.38207109375,26.8453705078125C24.38207109375,26.8453705078125,24.38207109375,29.0512705078125,24.38207109375,29.0512705078125C24.38207109375,29.0512705078125,24.38207109375,29.0512705078125,24.38207109375,29.0512705078125ZM21.07331109375,17.4443005078125C21.07331109375,17.4443005078125,21.07331109375,23.7466705078125,21.07331109375,23.7466705078125C21.07331109375,23.7466705078125,23.279151093750002,23.7466705078125,23.279151093750002,23.7466705078125C23.279151093750002,23.7466705078125,23.279151093750002,17.4443005078125,23.279151093750002,17.4443005078125C23.279151093750002,17.4443005078125,21.07331109375,17.4443005078125,21.07331109375,17.4443005078125C21.07331109375,17.4443005078125,21.07331109375,17.4443005078125,21.07331109375,17.4443005078125Z" fill="url(#master_svg3_8779_158069)" fill-opacity="1"/></g></g></svg>