<svg xmlns="http://www.w3.org/2000/svg" xmlns:xlink="http://www.w3.org/1999/xlink" fill="none" version="1.1" width="35.383544921875" height="33.7078857421875" viewBox="0 0 35.383544921875 33.7078857421875"><defs><linearGradient x1="-0.20000000298023224" y1="-0.09459458291530609" x2="1" y2="1.3108108043670654" id="master_svg0_8779_158773"><stop offset="0%" stop-color="#FFC74F" stop-opacity="1"/><stop offset="100%" stop-color="#FFB035" stop-opacity="1"/></linearGradient><linearGradient x1="-0.20000000298023224" y1="-0.09459458291530609" x2="1" y2="1.3108108043670654" id="master_svg1_8779_158747"><stop offset="0%" stop-color="#FFD171" stop-opacity="1"/><stop offset="100%" stop-color="#FFBA50" stop-opacity="1"/></linearGradient><linearGradient x1="-0.43243247270584106" y1="3.8202692564937024e-8" x2="1" y2="1.310810923576355" id="master_svg2_8779_158556"><stop offset="0%" stop-color="#FFEBC6" stop-opacity="1"/><stop offset="100%" stop-color="#FFC252" stop-opacity="0"/></linearGradient></defs><g><g><path d="M0,7.49064C0,3.35367,3.52039,0,7.86301,0C7.86301,0,16.5123,0,16.5123,0C20.8549,0,24.3753,3.35367,24.3753,7.49064C24.3753,7.49064,24.3753,26.2172,24.3753,26.2172C24.3753,30.3542,20.8549,33.7079,16.5123,33.7079C16.5123,33.7079,7.86301,33.7079,7.86301,33.7079C3.52039,33.7079,0,30.3542,0,26.2172C0,26.2172,0,7.49064,0,7.49064C0,7.49064,0,7.49064,0,7.49064Z" fill="url(#master_svg0_8779_158773)" fill-opacity="0.4000000059604645"/></g><g><path d="M0,12.477759431610107C0,8.135139431610106,3.52039,4.614749431610107,7.86301,4.614749431610107C7.86301,4.614749431610107,27.5205,4.614749431610107,27.5205,4.614749431610107C31.8631,4.614749431610107,35.3835,8.135139431610106,35.3835,12.477759431610107C35.3835,12.477759431610107,35.3835,25.844849431610108,35.3835,25.844849431610108C35.3835,30.18744943161011,31.8631,33.70784943161011,27.5205,33.70784943161011C27.5205,33.70784943161011,7.86301,33.70784943161011,7.86301,33.70784943161011C3.52039,33.70784943161011,0,30.18744943161011,0,25.844849431610108C0,25.844849431610108,0,12.477759431610107,0,12.477759431610107C0,12.477759431610107,0,12.477759431610107,0,12.477759431610107Z" fill="url(#master_svg1_8779_158747)" fill-opacity="1"/></g><g><path d="M3.1452040672302246,21.91337427001953C3.1452040672302246,19.30779427001953,5.257434067230225,17.19556427001953,7.863014067230225,17.19556427001953C7.863014067230225,17.19556427001953,27.520504067230224,17.19556427001953,27.520504067230224,17.19556427001953C30.126104067230223,17.19556427001953,32.238304067230224,19.30779427001953,32.238304067230224,21.91337427001953C32.238304067230224,21.91337427001953,32.238304067230224,25.84487427001953,32.238304067230224,25.84487427001953C32.238304067230224,28.45046427001953,30.126104067230223,30.562664270019532,27.520504067230224,30.562664270019532C27.520504067230224,30.562664270019532,11.008214067230224,30.562664270019532,11.008214067230224,30.562664270019532C6.6655940672302245,30.562664270019532,3.1452040672302246,27.042254270019534,3.1452040672302246,22.699674270019532C3.1452040672302246,22.699674270019532,3.1452040672302246,21.91337427001953,3.1452040672302246,21.91337427001953C3.1452040672302246,21.91337427001953,3.1452040672302246,21.91337427001953,3.1452040672302246,21.91337427001953Z" fill="url(#master_svg2_8779_158556)" fill-opacity="1"/></g></g></svg>