<svg xmlns="http://www.w3.org/2000/svg" xmlns:xlink="http://www.w3.org/1999/xlink" fill="none" version="1.1" width="33.087646484375" height="38.084716796875" viewBox="0 0 33.087646484375 38.084716796875"><defs><linearGradient x1="0.08888891339302063" y1="0.033333320170640945" x2="0.5" y2="1" id="master_svg0_8802_159101"><stop offset="0%" stop-color="#FFC276" stop-opacity="1"/><stop offset="99.28571581840515%" stop-color="#FF9E36" stop-opacity="1"/></linearGradient><linearGradient x1="-0.6060606241226196" y1="1.558823585510254" x2="0.9545454382896423" y2="-0.17647045850753784" id="master_svg1_8802_159151"><stop offset="0%" stop-color="#FFDAAD" stop-opacity="1"/><stop offset="100%" stop-color="#FFD2AD" stop-opacity="0"/></linearGradient></defs><g><g><g><g><g><path d="M0,7.35281C0,3.29196,3.29196,0,7.35281,0C7.35281,0,19.3805,0,19.3805,0C21.3305,0,23.2008,0.77467,24.5796,2.15359C24.5796,2.15359,30.9341,8.50801,30.9341,8.50801C32.313,9.88688,33.0876,11.7571,33.0876,13.7072C33.0876,13.7072,33.0876,30.7319,33.0876,30.7319C33.0876,34.7927,29.7956,38.0847,25.7348,38.0847C25.7348,38.0847,7.35281,38.0847,7.35281,38.0847C3.29196,38.0847,0,34.7927,0,30.7319C0,30.7319,0,7.35281,0,7.35281C0,7.35281,0,7.35281,0,7.35281Z" fill="url(#master_svg0_8802_159101)" fill-opacity="1"/></g><g><path d="M2.941162109375,24.4777300390625C2.941162109375,22.0412200390625,4.916342109375,20.0660400390625,7.352852109375,20.0660400390625C7.352852109375,20.0660400390625,25.734862109375,20.0660400390625,25.734862109375,20.0660400390625C28.171362109375,20.0660400390625,30.146562109375,22.0412200390625,30.146562109375,24.4777300390625C30.146562109375,24.4777300390625,30.146562109375,28.1541300390625,30.146562109375,28.1541300390625C30.146562109375,30.5906400390625,28.171362109375,32.5658400390625,25.734862109375,32.5658400390625C25.734862109375,32.5658400390625,10.293972109375,32.5658400390625,10.293972109375,32.5658400390625C6.2331221093749996,32.5658400390625,2.941162109375,29.2738200390625,2.941162109375,25.2130100390625C2.941162109375,25.2130100390625,2.941162109375,24.4777300390625,2.941162109375,24.4777300390625C2.941162109375,24.4777300390625,2.941162109375,24.4777300390625,2.941162109375,24.4777300390625Z" fill="url(#master_svg1_8802_159151)" fill-opacity="1"/></g></g></g><g><path d="M24.653826171875,13.5756831640625Q24.252126171875,13.968923164062499,23.814326171875003,14.3214531640625Q23.376626171875,14.6739831640625,22.906926171875,14.9825131640625Q22.437226171875,15.2910431640625,21.940026171874997,15.5526931640625Q21.442826171874998,15.8143331640625,20.922626171875002,16.0266431640625Q20.402526171875,16.2389631640625,19.864326171875,16.3999531640625Q19.326226171875,16.5609531640625,18.775026171875,16.6691231640625Q18.223876171875,16.777303164062502,17.664856171875,16.8316431640625Q17.105836171874998,16.8859831640625,16.544186171874998,16.8859831640625Q15.982526171875,16.8859831640625,15.423486171875,16.8316331640625Q14.864446171874999,16.7772931640625,14.313256171875,16.6691131640625Q13.762066171875,16.5609231640625,13.223886171875,16.3999131640625Q12.685696171875,16.2389131640625,12.165556171875,16.0265831640625Q11.645416171875,15.8142531640625,11.148166171875,15.5525931640625Q10.650926171875,15.2909231640625,10.181236171875,14.982373164062501Q9.711546171875,14.673823164062501,9.273791171875,14.3212631640625Q8.836041171875,13.9687131640625,8.434326171875,13.5754431640625L8.434326171875,24.922943164062502Q8.434326171875,25.119443164062503,8.453587271875,25.3150431640625Q8.472848371875,25.5106431640625,8.511185071875,25.7033431640625Q8.549522171875,25.8960431640625,8.606565171875,26.0841431640625Q8.663608171875,26.2721431640625,8.738808171875,26.4537431640625Q8.814008171875,26.6352431640625,8.906641171875,26.8085431640625Q8.999274171875,26.9818431640625,9.108447171875,27.1452431640625Q9.217621171875,27.3086431640625,9.342284171875,27.4605431640625Q9.466946171875,27.6124431640625,9.605896171875,27.7514431640625Q9.744846171875,27.8903431640625,9.896756171875,28.0150431640625Q10.048656171875,28.1396431640625,10.212046171875,28.2488431640625Q10.375436171875,28.3580431640625,10.548736171875,28.4506431640625Q10.722046171875,28.5432431640625,10.903596171875,28.6184431640625Q11.085146171875,28.6936431640625,11.273186171875,28.7507431640625Q11.461236171875,28.8077431640625,11.653966171875,28.8461431640625Q11.846696171875,28.8844431640625,12.042256171875,28.9037431640625Q12.237816171875,28.9229431640625,12.434326171875,28.9229431640625L20.653826171875,28.9229431640625Q20.850326171875,28.9229431640625,21.045926171875,28.9037431640625Q21.241426171875,28.8844431640625,21.434126171875,28.8461431640625Q21.626926171875,28.8077431640625,21.814926171875,28.7507431640625Q22.003026171875,28.6936431640625,22.184526171875,28.6184431640625Q22.366126171875003,28.5432431640625,22.539426171875,28.4506431640625Q22.712726171874998,28.3580431640625,22.876126171875,28.2488431640625Q23.039526171875,28.1396431640625,23.191426171875,28.0150431640625Q23.343326171875,27.8903431640625,23.482226171875,27.7514431640625Q23.621226171875,27.6124431640625,23.745826171875002,27.4605431640625Q23.870526171875,27.3086431640625,23.979726171875,27.1452431640625Q24.088826171875,26.9818431640625,24.181526171875,26.8085431640625Q24.274126171875,26.6352431640625,24.349326171875,26.4537431640625Q24.424526171875,26.2721431640625,24.481526171875,26.0841431640625Q24.538626171875,25.8960431640625,24.576926171875,25.7033431640625Q24.615326171875,25.5106431640625,24.634526171875,25.3150431640625Q24.653826171875,25.119443164062503,24.653826171875,24.922943164062502L24.653826171875,13.5756831640625ZM24.481926171875,12.0016431640625Q24.205626171875,12.3271831640625,23.900026171875,12.6333831640625Q22.376326171875,14.1597831640625,20.373026171875,14.954313164062501Q18.528226171874998,15.685983164062499,16.544186171874998,15.685983164062499Q14.560126171875,15.685983164062499,12.715316171875,14.954313164062501Q10.712026171875,14.1597831640625,9.188392171875,12.6333831640625Q8.882650171875,12.3270831640625,8.606316171875,12.0014231640625Q8.652626171875,11.8486431640625,8.710964171875,11.7000431640625Q8.769303171875,11.5514331640625,8.839299171875,11.4079531640625Q8.909295171875,11.264473164062501,8.990504171875,11.1270231640625Q9.071712171875,10.9895731640625,9.163616171875,10.8590331640625Q9.255521171875,10.7284931640625,9.357536171875,10.6057031640625Q9.459556171875,10.482903164062499,9.571026171875,10.3686231640625Q9.682506171875,10.254343164062501,9.802736171875,10.1493131640625Q9.922966171875,10.0442831640625,10.051186171874999,9.9491681640625Q10.179406171875,9.8540541640625,10.314796171875,9.7694601640625Q10.450186171875,9.6848671640625,10.591886171875,9.6113331640625Q10.733586171875,9.5377981640625,10.880696171875,9.4757911640625Q11.027806171875,9.4137841640625,11.179396171875,9.3636981640625Q11.330976171875001,9.3136121640625,11.486076171875,9.2757661640625Q11.641166171875,9.2379197640625,11.798786171875,9.2125545640625Q11.956406171874999,9.1871892640625,12.115546171875,9.1744662640625Q12.274676171875,9.1617431640625,12.434326171875,9.1617431640625L20.653826171875,9.1617431640625Q20.813426171875,9.1617431640625,20.972626171875,9.1744673640625Q21.131726171875002,9.1871915640625,21.289326171875,9.2125589640625Q21.447026171875002,9.2379263640625,21.602126171875,9.2757761640625Q21.757226171875,9.3136251640625,21.908826171875,9.3637151640625Q22.060426171875,9.4138051640625,22.207526171875,9.4758181640625Q22.354626171874997,9.5378311640625,22.496326171874998,9.6113711640625Q22.638026171874998,9.6849121640625,22.773426171875002,9.7695121640625Q22.908826171875,9.8541131640625,23.037026171875,9.9492351640625Q23.165226171875,10.0443571640625,23.285526171875,10.1493961640625Q23.405726171875,10.2544331640625,23.517226171875002,10.3687231640625Q23.628726171875,10.4830131640625,23.730726171875,10.6058131640625Q23.832726171875002,10.7286231640625,23.924626171874998,10.8591731640625Q24.016526171875,10.9897231640625,24.097726171875,11.127183164062501Q24.178926171875,11.2646331640625,24.248926171875,11.4081331640625Q24.318926171875,11.5516231640625,24.377226171875,11.7002331640625Q24.435626171875,11.8488531640625,24.481926171875,12.0016431640625Z" fill-rule="evenodd" fill="#FFFFFF" fill-opacity="1"/></g><g><ellipse cx="16.543962359428406" cy="13.310930132865906" rx="1.1167162656784058" ry="1.1167162656784058" fill="#FFB25A" fill-opacity="1"/></g><g><ellipse cx="16.543962359428406" cy="19.752092242240906" rx="1.1167162656784058" ry="1.1167162656784058" fill="#FFB25A" fill-opacity="1"/></g></g><g><rect x="16.232177734375" y="13.68603515625" width="0.62353515625" height="5.3563232421875" rx="0" fill="#FFB057" fill-opacity="1"/></g></g></svg>