<svg xmlns="http://www.w3.org/2000/svg" xmlns:xlink="http://www.w3.org/1999/xlink" fill="none" version="1.1" width="31.1153564453125" height="34.002197265625" viewBox="0 0 31.1153564453125 34.002197265625"><defs><filter id="master_svg0_8819_163399" filterUnits="objectBoundingBox" color-interpolation-filters="sRGB" x="-8" y="-4" width="35.115325927734375" height="38.002227783203125"><feFlood flood-opacity="0" result="BackgroundImageFix"/><feColorMatrix in="SourceAlpha" type="matrix" values="0 0 0 0 0 0 0 0 0 0 0 0 0 0 0 0 0 0 127 0"/><feOffset dy="4" dx="0"/><feGaussianBlur stdDeviation="2"/><feColorMatrix type="matrix" values="0 0 0 0 0.39148372411727905 0 0 0 0 0.16468748450279236 0 0 0 0 0.637499988079071 0 0 0 0.10000000149011612 0"/><feBlend mode="normal" in2="BackgroundImageFix" result="effect1_dropShadow"/><feBlend mode="normal" in="SourceGraphic" in2="effect1_dropShadow" result="shape"/></filter><linearGradient x1="0.08888891339302063" y1="0.033333320170640945" x2="0.5" y2="1" id="master_svg1_8819_163232"><stop offset="0%" stop-color="#80CEFF" stop-opacity="1"/><stop offset="100%" stop-color="#70C8FF" stop-opacity="1"/></linearGradient><linearGradient x1="-0.6060606241226196" y1="1.558823585510254" x2="0.9545454382896423" y2="-0.17647045850753784" id="master_svg2_8819_163246"><stop offset="0%" stop-color="#AADEFF" stop-opacity="1"/><stop offset="100%" stop-color="#AADEFF" stop-opacity="0"/></linearGradient><linearGradient x1="0.5" y1="-3.0616171314629196e-17" x2="0.5" y2="1" id="master_svg3_8779_158069"><stop offset="0%" stop-color="#FFFFFF" stop-opacity="1"/><stop offset="100%" stop-color="#FFFFFF" stop-opacity="0.800000011920929"/></linearGradient></defs><g><g><g filter="url(#master_svg0_8819_163399)"><path d="M6,6.24785C6,3.90183,7.90183,2,10.24785,2C10.24785,2,17.1964,2,17.1964,2C18.323,2,19.4035,2.447541,20.2001,3.24417C20.2001,3.24417,23.8712,6.91523,23.8712,6.91523C24.6678,7.71183,25.1153,8.79231,25.1153,9.918890000000001C25.1153,9.918890000000001,25.1153,19.7544,25.1153,19.7544C25.1153,22.1004,23.2135,24.0022,20.8675,24.0022C20.8675,24.0022,10.24785,24.0022,10.24785,24.0022C7.90183,24.0022,6,22.1004,6,19.7544C6,19.7544,6,6.24785,6,6.24785C6,6.24785,6,6.24785,6,6.24785Z" fill="url(#master_svg1_8819_163232)" fill-opacity="1"/></g><g><path d="M7.699162006378174,16.141221177062988C7.699162006378174,14.733611177062988,8.840262006378174,13.592511177062988,10.247872006378174,13.592511177062988C10.247872006378174,13.592511177062988,20.867462006378176,13.592511177062988,20.867462006378176,13.592511177062988C22.275062006378175,13.592511177062988,23.416162006378173,14.733611177062988,23.416162006378173,16.141221177062988C23.416162006378173,16.141221177062988,23.416162006378173,18.26515117706299,23.416162006378173,18.26515117706299C23.416162006378173,19.672761177062988,22.275062006378175,20.81386117706299,20.867462006378176,20.81386117706299C20.867462006378176,20.81386117706299,11.947012006378174,20.81386117706299,11.947012006378174,20.81386117706299C9.600992006378174,20.81386117706299,7.699162006378174,18.912011177062986,7.699162006378174,16.56601117706299C7.699162006378174,16.56601117706299,7.699162006378174,16.141221177062988,7.699162006378174,16.141221177062988C7.699162006378174,16.141221177062988,7.699162006378174,16.141221177062988,7.699162006378174,16.141221177062988Z" fill="url(#master_svg2_8819_163246)" fill-opacity="1"/></g></g><g><path d="M20.92601752075195,9.630710481567382C20.92601752075195,10.378320481567382,20.319957520751952,10.984380481567383,19.572347520751954,10.984380481567383C18.82473652075195,10.984380481567383,18.218677520751953,10.378320481567382,18.218677520751953,9.630710481567382C18.218677520751953,8.883099481567383,18.82473652075195,8.277040481567383,19.572347520751954,8.277040481567383C20.319957520751952,8.277040481567383,20.92601752075195,8.883099481567383,20.92601752075195,9.630710481567382C20.92601752075195,9.630710481567382,20.92601752075195,9.630710481567382,20.92601752075195,9.630710481567382Z" fill="#FFFFFF" fill-opacity="1"/></g><g><path d="M12.374341490783692,10.820863548431397C12.374341490783692,10.820863548431397,10.351199490783692,15.235003548431397,10.351199490783692,15.235003548431397C9.817548490783691,16.399323548431397,10.668340490783692,17.725183548431396,11.949141490783692,17.725183548431396C11.949141490783692,17.725183548431396,18.95483149078369,17.725183548431396,18.95483149078369,17.725183548431396C20.29770149078369,17.725183548431396,21.14470149078369,16.280233548431397,20.48850149078369,15.108533548431396C20.48850149078369,15.108533548431396,19.48603149078369,13.318403548431396,19.48603149078369,13.318403548431396C19.17354149078369,12.760393548431397,18.425161490783694,12.634353548431397,17.94713149078369,13.059263548431396C17.43386149078369,13.515493548431397,16.624051490783692,13.331413548431396,16.358491490783692,12.698073548431397C16.358491490783692,12.698073548431397,15.59332149078369,10.873463548431396,15.59332149078369,10.873463548431396C15.00117149078369,9.461459548431396,13.012301490783692,9.428953548431396,12.374341490783692,10.820863548431397C12.374341490783692,10.820863548431397,12.374341490783692,10.820863548431397,12.374341490783692,10.820863548431397Z" fill="url(#master_svg3_8779_158069)" fill-opacity="1"/></g></g></svg>