<svg xmlns="http://www.w3.org/2000/svg" xmlns:xlink="http://www.w3.org/1999/xlink" fill="none" version="1.1" width="33.087646484375" height="38.084716796875" viewBox="0 0 33.087646484375 38.084716796875"><defs><linearGradient x1="0.08888891339302063" y1="0.033333320170640945" x2="0.5" y2="1" id="master_svg0_8819_163232"><stop offset="0%" stop-color="#80CEFF" stop-opacity="1"/><stop offset="100%" stop-color="#70C8FF" stop-opacity="1"/></linearGradient><linearGradient x1="-0.6060606241226196" y1="1.558823585510254" x2="0.9545454382896423" y2="-0.17647045850753784" id="master_svg1_8819_163246"><stop offset="0%" stop-color="#AADEFF" stop-opacity="1"/><stop offset="100%" stop-color="#AADEFF" stop-opacity="0"/></linearGradient><linearGradient x1="0.5" y1="-3.0616171314629196e-17" x2="0.5" y2="1" id="master_svg2_8779_158069"><stop offset="0%" stop-color="#FFFFFF" stop-opacity="1"/><stop offset="100%" stop-color="#FFFFFF" stop-opacity="0.800000011920929"/></linearGradient></defs><g><g><g><path d="M0,7.35281C0,3.29196,3.29196,0,7.35281,0C7.35281,0,19.3805,0,19.3805,0C21.3305,0,23.2008,0.77467,24.5796,2.15359C24.5796,2.15359,30.9341,8.50801,30.9341,8.50801C32.313,9.88688,33.0876,11.7571,33.0876,13.7072C33.0876,13.7072,33.0876,30.7319,33.0876,30.7319C33.0876,34.7927,29.7956,38.0847,25.7348,38.0847C25.7348,38.0847,7.35281,38.0847,7.35281,38.0847C3.29196,38.0847,0,34.7927,0,30.7319C0,30.7319,0,7.35281,0,7.35281C0,7.35281,0,7.35281,0,7.35281Z" fill="url(#master_svg0_8819_163232)" fill-opacity="1"/></g><g><path d="M2.941162109375,24.4777300390625C2.941162109375,22.0412200390625,4.916342109375,20.0660400390625,7.352852109375,20.0660400390625C7.352852109375,20.0660400390625,25.734862109375,20.0660400390625,25.734862109375,20.0660400390625C28.171362109375,20.0660400390625,30.146562109375,22.0412200390625,30.146562109375,24.4777300390625C30.146562109375,24.4777300390625,30.146562109375,28.1541300390625,30.146562109375,28.1541300390625C30.146562109375,30.5906400390625,28.171362109375,32.5658400390625,25.734862109375,32.5658400390625C25.734862109375,32.5658400390625,10.293972109375,32.5658400390625,10.293972109375,32.5658400390625C6.2331221093749996,32.5658400390625,2.941162109375,29.2738200390625,2.941162109375,25.2130100390625C2.941162109375,25.2130100390625,2.941162109375,24.4777300390625,2.941162109375,24.4777300390625C2.941162109375,24.4777300390625,2.941162109375,24.4777300390625,2.941162109375,24.4777300390625Z" fill="url(#master_svg1_8819_163246)" fill-opacity="1"/></g></g><g><path d="M25.83616234375,13.208364375C25.83616234375,14.502444375,24.78711234375,15.551494375,23.49303234375,15.551494375C22.19896234375,15.551494375,21.14990234375,14.502444375,21.14990234375,13.208364375C21.14990234375,11.914294375,22.19896234375,10.865234375,23.49303234375,10.865234375C24.78711234375,10.865234375,25.83616234375,11.914294375,25.83616234375,13.208364375C25.83616234375,13.208364375,25.83616234375,13.208364375,25.83616234375,13.208364375Z" fill="#FFFFFF" fill-opacity="1"/></g><g><path d="M11.03366484375,15.2684502734375C11.03366484375,15.2684502734375,7.53170284375,22.9091202734375,7.53170284375,22.9091202734375C6.60797884375,24.924530273437497,8.08065684375,27.2194302734375,10.297664843749999,27.2194302734375C10.297664843749999,27.2194302734375,22.42416484375,27.2194302734375,22.42416484375,27.2194302734375C24.74866484375,27.2194302734375,26.21466484375,24.718330273437502,25.07886484375,22.690200273437497C25.07886484375,22.690200273437497,23.34366484375,19.5915702734375,23.34366484375,19.5915702734375C22.802764843749998,18.6256802734375,21.50736484375,18.4075302734375,20.67986484375,19.1430102734375C19.79146484375,19.9327302734375,18.389664843749998,19.6140902734375,17.92996484375,18.5178202734375C17.92996484375,18.5178202734375,16.60554484375,15.3595102734375,16.60554484375,15.3595102734375C15.58055484375,12.9154042734375,12.13793484375,12.8591382734375,11.03366484375,15.2684502734375C11.03366484375,15.2684502734375,11.03366484375,15.2684502734375,11.03366484375,15.2684502734375Z" fill="url(#master_svg2_8779_158069)" fill-opacity="1"/></g></g></svg>