<svg xmlns="http://www.w3.org/2000/svg" xmlns:xlink="http://www.w3.org/1999/xlink" fill="none" version="1.1" width="33.087646484375" height="38.084716796875" viewBox="0 0 33.087646484375 38.084716796875"><defs><linearGradient x1="0.08888891339302063" y1="0.033333320170640945" x2="0.5" y2="1" id="master_svg0_8802_159752"><stop offset="0%" stop-color="#7994FF" stop-opacity="1"/><stop offset="97.14285731315613%" stop-color="#4F60F9" stop-opacity="1"/></linearGradient><linearGradient x1="-0.6060606241226196" y1="1.558823585510254" x2="0.9545454382896423" y2="-0.17647045850753784" id="master_svg1_8802_159664"><stop offset="0%" stop-color="#7EA1FF" stop-opacity="0.6299999952316284"/><stop offset="100%" stop-color="#ADC3FF" stop-opacity="0"/></linearGradient></defs><g><g><g><g><g><path d="M0,7.35281C0,3.29196,3.29196,0,7.35281,0C7.35281,0,19.3805,0,19.3805,0C21.3305,0,23.2008,0.77467,24.5796,2.15359C24.5796,2.15359,30.9341,8.50801,30.9341,8.50801C32.313,9.88688,33.0876,11.7571,33.0876,13.7072C33.0876,13.7072,33.0876,30.7319,33.0876,30.7319C33.0876,34.7927,29.7956,38.0847,25.7348,38.0847C25.7348,38.0847,7.35281,38.0847,7.35281,38.0847C3.29196,38.0847,0,34.7927,0,30.7319C0,30.7319,0,7.35281,0,7.35281C0,7.35281,0,7.35281,0,7.35281Z" fill="url(#master_svg0_8802_159752)" fill-opacity="1"/></g><g><path d="M2.941162109375,24.4777300390625C2.941162109375,22.0412200390625,4.916342109375,20.0660400390625,7.352852109375,20.0660400390625C7.352852109375,20.0660400390625,25.734862109375,20.0660400390625,25.734862109375,20.0660400390625C28.171362109375,20.0660400390625,30.146562109375,22.0412200390625,30.146562109375,24.4777300390625C30.146562109375,24.4777300390625,30.146562109375,28.1541300390625,30.146562109375,28.1541300390625C30.146562109375,30.5906400390625,28.171362109375,32.5658400390625,25.734862109375,32.5658400390625C25.734862109375,32.5658400390625,10.293972109375,32.5658400390625,10.293972109375,32.5658400390625C6.2331221093749996,32.5658400390625,2.941162109375,29.2738200390625,2.941162109375,25.2130100390625C2.941162109375,25.2130100390625,2.941162109375,24.4777300390625,2.941162109375,24.4777300390625C2.941162109375,24.4777300390625,2.941162109375,24.4777300390625,2.941162109375,24.4777300390625Z" fill="url(#master_svg1_8802_159664)" fill-opacity="1"/></g></g></g></g><g><g><path d="M24.278391796875,20.300055507812502L23.368491796875,20.300055507812502L23.368491796875,18.1616355078125C23.368491796875,14.5741055078125,20.306891796875,11.6553955078125,16.543731796875,11.6553955078125C12.780581796875001,11.6553955078125,9.719001796875,14.5741055078125,9.719001796875,18.1616355078125L9.719001796875,20.300055507812502L8.809041796875,20.300055507812502C8.055198796875,20.300055507812502,7.444091796875,20.9111655078125,7.444091796875,21.6649955078125L7.444091796875,26.2147955078125C7.444091796875,26.968695507812498,8.055198796875,27.5797955078125,8.809041796875,27.5797955078125L9.719001796875,27.5797955078125C10.472841796875,27.5797955078125,11.083951796875,26.968695507812498,11.083951796875,26.2147955078125L11.083951796875,18.1616355078125C11.083951796875,15.3266455078125,13.533121796875001,13.0203455078125,16.543731796875,13.0203455078125C19.554391796875002,13.0203455078125,22.003491796875,15.3266455078125,22.003491796875,18.1616355078125L22.003491796875,26.2147955078125C22.003491796875,26.968695507812498,22.614591796875,27.5797955078125,23.368491796875,27.5797955078125L24.278391796875,27.5797955078125C25.032291796875,27.5797955078125,25.643391796875,26.968695507812498,25.643391796875,26.2147955078125L25.643391796875,21.6649955078125C25.643391796875,20.9111655078125,25.032291796875,20.300055507812502,24.278391796875,20.300055507812502Z" fill="#FFFFFF" fill-opacity="1"/></g><g><path d="M17.50672140625,24.451815078125L17.49170140625,24.451815078125C17.222071406250002,24.445665078125,16.981281406249998,24.281505078125,16.87702140625,24.032775078125L15.82738140625,21.522635078125L15.576231406249999,22.189635078125C15.47617140625,22.455705078125,15.22168140625,22.631885078125,14.937431406249999,22.631885078125L12.90366440625,22.631885078125C12.52674440625,22.631885078125,12.22119140625,22.326325078125,12.22119140625,21.949405078125C12.22119140625,21.572495078125,12.52674440625,21.266935078125,12.90366440625,21.266935078125L14.46562140625,21.266935078125L15.15582140625,19.434269078125C15.25456140625,19.172654078125,15.50252140625,18.997485918125,15.78234140625,18.992026531125C16.04804140625,18.980197178125,16.31648140625,19.153090078125,16.42432140625,19.411065078125L17.54403140625,22.088635078125L17.74604140625,21.659135078125C17.858721406249998,21.420095078125,18.09919140625,21.267515078125,18.36345140625,21.267395078125L20.18338140625,21.267395078125C20.560301406249998,21.267395078125,20.865851406250002,21.572945078125,20.865851406250002,21.949865078125C20.865851406250002,22.326785078125,20.560301406249998,22.632335078125,20.18338140625,22.632335078125L18.796591406250002,22.632335078125L18.12413140625,24.060525078125C18.011411406249998,24.299465078125,17.77091140625,24.451885078125,17.50672140625,24.451815078125Z" fill="#FFFFFF" fill-opacity="1"/></g></g></g></svg>