<svg xmlns="http://www.w3.org/2000/svg" xmlns:xlink="http://www.w3.org/1999/xlink" fill="none" version="1.1" width="45.087646484375" height="50.084716796875" viewBox="0 0 45.087646484375 50.084716796875"><defs><filter id="master_svg0_8837_173995" filterUnits="objectBoundingBox" color-interpolation-filters="sRGB" x="-8" y="-4" width="49.087646484375" height="54.08472442626953"><feFlood flood-opacity="0" result="BackgroundImageFix"/><feColorMatrix in="SourceAlpha" type="matrix" values="0 0 0 0 0 0 0 0 0 0 0 0 0 0 0 0 0 0 127 0"/><feOffset dy="4" dx="0"/><feGaussianBlur stdDeviation="2"/><feColorMatrix type="matrix" values="0 0 0 0 0.39148372411727905 0 0 0 0 0.16468748450279236 0 0 0 0 0.637499988079071 0 0 0 0.10000000149011612 0"/><feBlend mode="normal" in2="BackgroundImageFix" result="effect1_dropShadow"/><feBlend mode="normal" in="SourceGraphic" in2="effect1_dropShadow" result="shape"/></filter><linearGradient x1="0.08888891339302063" y1="0.033333320170640945" x2="0.5" y2="1" id="master_svg1_8802_159752"><stop offset="0%" stop-color="#7994FF" stop-opacity="1"/><stop offset="97.14285731315613%" stop-color="#4F60F9" stop-opacity="1"/></linearGradient><linearGradient x1="-0.6060606241226196" y1="1.558823585510254" x2="0.9545454382896423" y2="-0.17647045850753784" id="master_svg2_8802_159664"><stop offset="0%" stop-color="#7EA1FF" stop-opacity="0.6299999952316284"/><stop offset="100%" stop-color="#ADC3FF" stop-opacity="0"/></linearGradient></defs><g><g><g><g><g filter="url(#master_svg0_8837_173995)"><path d="M6,9.35281C6,5.2919599999999996,9.29196,2,13.35281,2C13.35281,2,25.3805,2,25.3805,2C27.3305,2,29.2008,2.77467,30.5796,4.1535899999999994C30.5796,4.1535899999999994,36.9341,10.50801,36.9341,10.50801C38.313,11.88688,39.0876,13.7571,39.0876,15.7072C39.0876,15.7072,39.0876,32.731899999999996,39.0876,32.731899999999996C39.0876,36.7927,35.7956,40.0847,31.7348,40.0847C31.7348,40.0847,13.35281,40.0847,13.35281,40.0847C9.29196,40.0847,6,36.7927,6,32.731899999999996C6,32.731899999999996,6,9.35281,6,9.35281C6,9.35281,6,9.35281,6,9.35281Z" fill="url(#master_svg1_8802_159752)" fill-opacity="1"/></g><g><path d="M8.941162109375,26.4777300390625C8.941162109375,24.0412200390625,10.916342109375,22.0660400390625,13.352852109375,22.0660400390625C13.352852109375,22.0660400390625,31.734862109375,22.0660400390625,31.734862109375,22.0660400390625C34.171362109374996,22.0660400390625,36.146562109375,24.0412200390625,36.146562109375,26.4777300390625C36.146562109375,26.4777300390625,36.146562109375,30.1541300390625,36.146562109375,30.1541300390625C36.146562109375,32.5906400390625,34.171362109374996,34.5658400390625,31.734862109375,34.5658400390625C31.734862109375,34.5658400390625,16.293972109374998,34.5658400390625,16.293972109374998,34.5658400390625C12.233122109375,34.5658400390625,8.941162109375,31.2738200390625,8.941162109375,27.2130100390625C8.941162109375,27.2130100390625,8.941162109375,26.4777300390625,8.941162109375,26.4777300390625C8.941162109375,26.4777300390625,8.941162109375,26.4777300390625,8.941162109375,26.4777300390625Z" fill="url(#master_svg2_8802_159664)" fill-opacity="1"/></g></g></g></g><g><g><path d="M30.278391796875,22.300055507812502L29.368491796875,22.300055507812502L29.368491796875,20.1616355078125C29.368491796875,16.5741055078125,26.306891796875,13.6553955078125,22.543731796875,13.6553955078125C18.780581796875,13.6553955078125,15.719001796875,16.5741055078125,15.719001796875,20.1616355078125L15.719001796875,22.300055507812502L14.809041796875,22.300055507812502C14.055198796875,22.300055507812502,13.444091796875,22.9111655078125,13.444091796875,23.6649955078125L13.444091796875,28.2147955078125C13.444091796875,28.968695507812498,14.055198796875,29.5797955078125,14.809041796875,29.5797955078125L15.719001796875,29.5797955078125C16.472841796875,29.5797955078125,17.083951796875,28.968695507812498,17.083951796875,28.2147955078125L17.083951796875,20.1616355078125C17.083951796875,17.3266455078125,19.533121796875,15.0203455078125,22.543731796875,15.0203455078125C25.554391796875002,15.0203455078125,28.003491796875,17.3266455078125,28.003491796875,20.1616355078125L28.003491796875,28.2147955078125C28.003491796875,28.968695507812498,28.614591796875,29.5797955078125,29.368491796875,29.5797955078125L30.278391796875,29.5797955078125C31.032291796875,29.5797955078125,31.643391796875,28.968695507812498,31.643391796875,28.2147955078125L31.643391796875,23.6649955078125C31.643391796875,22.9111655078125,31.032291796875,22.300055507812502,30.278391796875,22.300055507812502Z" fill="#FFFFFF" fill-opacity="1"/></g><g><path d="M23.50672140625,26.451815078125L23.49170140625,26.451815078125C23.222071406250002,26.445665078125,22.981281406249998,26.281505078125,22.87702140625,26.032775078125L21.827381406249998,23.522635078125L21.57623140625,24.189635078125C21.47617140625,24.455705078125,21.22168140625,24.631885078125,20.93743140625,24.631885078125L18.90366440625,24.631885078125C18.52674440625,24.631885078125,18.22119140625,24.326325078125,18.22119140625,23.949405078125C18.22119140625,23.572495078125,18.52674440625,23.266935078125,18.90366440625,23.266935078125L20.46562140625,23.266935078125L21.15582140625,21.434269078125C21.25456140625,21.172654078125,21.50252140625,20.997485918125,21.78234140625,20.992026531125C22.04804140625,20.980197178125,22.31648140625,21.153090078125,22.42432140625,21.411065078125L23.54403140625,24.088635078125L23.74604140625,23.659135078125C23.858721406249998,23.420095078125,24.09919140625,23.267515078125,24.36345140625,23.267395078125L26.18338140625,23.267395078125C26.560301406249998,23.267395078125,26.865851406250002,23.572945078125,26.865851406250002,23.949865078125C26.865851406250002,24.326785078125,26.560301406249998,24.632335078125,26.18338140625,24.632335078125L24.796591406250002,24.632335078125L24.12413140625,26.060525078125C24.011411406249998,26.299465078125,23.77091140625,26.451885078125,23.50672140625,26.451815078125Z" fill="#FFFFFF" fill-opacity="1"/></g></g></g></svg>