<svg xmlns="http://www.w3.org/2000/svg" xmlns:xlink="http://www.w3.org/1999/xlink" fill="none" version="1.1" width="33.087646484375" height="38.084716796875" viewBox="0 0 33.087646484375 38.084716796875"><defs><linearGradient x1="0.08888891339302063" y1="0.033333320170640945" x2="0.5" y2="1" id="master_svg0_10024_137897"><stop offset="0%" stop-color="#C38CFD" stop-opacity="1"/><stop offset="97.14285731315613%" stop-color="#B672FF" stop-opacity="1"/></linearGradient><linearGradient x1="-0.6060606241226196" y1="1.558823585510254" x2="0.9545454382896423" y2="-0.17647045850753784" id="master_svg1_10024_137901"><stop offset="0%" stop-color="#D5ADFF" stop-opacity="0.6299999952316284"/><stop offset="100%" stop-color="#D9D9D9" stop-opacity="0"/></linearGradient><linearGradient x1="0.5" y1="-3.0616171314629196e-17" x2="0.5" y2="1" id="master_svg2_8779_158069"><stop offset="0%" stop-color="#FFFFFF" stop-opacity="1"/><stop offset="100%" stop-color="#FFFFFF" stop-opacity="0.800000011920929"/></linearGradient></defs><g><g><g><g><g><g><path d="M0,7.35281C0,3.29196,3.29196,0,7.35281,0C7.35281,0,19.3805,0,19.3805,0C21.3305,0,23.2008,0.77467,24.5796,2.15359C24.5796,2.15359,30.9341,8.50801,30.9341,8.50801C32.313,9.88688,33.0876,11.7571,33.0876,13.7072C33.0876,13.7072,33.0876,30.7319,33.0876,30.7319C33.0876,34.7927,29.7956,38.0847,25.7348,38.0847C25.7348,38.0847,7.35281,38.0847,7.35281,38.0847C3.29196,38.0847,0,34.7927,0,30.7319C0,30.7319,0,7.35281,0,7.35281C0,7.35281,0,7.35281,0,7.35281Z" fill="url(#master_svg0_10024_137897)" fill-opacity="1"/></g><g><path d="M2.941162109375,24.4777300390625C2.941162109375,22.0412200390625,4.916342109375,20.0660400390625,7.352852109375,20.0660400390625C7.352852109375,20.0660400390625,25.734862109375,20.0660400390625,25.734862109375,20.0660400390625C28.171362109375,20.0660400390625,30.146562109375,22.0412200390625,30.146562109375,24.4777300390625C30.146562109375,24.4777300390625,30.146562109375,28.1541300390625,30.146562109375,28.1541300390625C30.146562109375,30.5906400390625,28.171362109375,32.5658400390625,25.734862109375,32.5658400390625C25.734862109375,32.5658400390625,10.293972109375,32.5658400390625,10.293972109375,32.5658400390625C6.2331221093749996,32.5658400390625,2.941162109375,29.2738200390625,2.941162109375,25.2130100390625C2.941162109375,25.2130100390625,2.941162109375,24.4777300390625,2.941162109375,24.4777300390625C2.941162109375,24.4777300390625,2.941162109375,24.4777300390625,2.941162109375,24.4777300390625Z" fill="url(#master_svg1_10024_137901)" fill-opacity="1"/></g></g></g></g></g><g><path d="M19.852666875,17.9652815625C19.852666875,18.5744015625,20.346486875,19.0682015625,20.955596874999998,19.0682015625C21.564696875,19.0682015625,22.058496875,18.5744015625,22.058496875,17.9652815625C22.058496875,17.9652815625,19.852666875,17.9652815625,19.852666875,17.9652815625C19.852666875,17.9652815625,19.852666875,17.9652815625,19.852666875,17.9652815625ZM11.029296875,17.9652815625C11.029296875,18.5744015625,11.523091875,19.0682015625,12.132216875,19.0682015625C12.741346875,19.0682015625,13.235136875,18.5744015625,13.235136875,17.9652815625C13.235136875,17.9652815625,11.029296875,17.9652815625,11.029296875,17.9652815625C11.029296875,17.9652815625,11.029296875,17.9652815625,11.029296875,17.9652815625ZM14.338056875,27.418851562500002C14.338056875,27.418851562500002,14.338056875,26.3159515625,14.338056875,26.3159515625C14.338056875,26.3159515625,14.338056875,26.3159515625,14.338056875,26.3159515625C14.338056875,26.3159515625,14.338056875,27.418851562500002,14.338056875,27.418851562500002C14.338056875,27.418851562500002,14.338056875,27.418851562500002,14.338056875,27.418851562500002ZM18.749746875,27.418851562500002C18.749746875,27.418851562500002,18.749746875,28.5218515625,18.749746875,28.5218515625C18.749746875,28.5218515625,18.749746875,28.5218515625,18.749746875,28.5218515625C18.749746875,28.5218515625,18.749746875,27.418851562500002,18.749746875,27.418851562500002C18.749746875,27.418851562500002,18.749746875,27.418851562500002,18.749746875,27.418851562500002ZM12.132216875,25.3181515625C12.132216875,25.3181515625,13.235136875,25.3181515625,13.235136875,25.3181515625C13.235136875,25.3181515625,12.132216875,25.3181515625,12.132216875,25.3181515625C12.132216875,25.3181515625,12.132216875,25.3181515625,12.132216875,25.3181515625ZM13.235136875,22.1668515625C13.235136875,21.557751562500002,12.741346875,21.063931562500002,12.132216875,21.063931562500002C11.523092875,21.063931562500002,11.029296875,21.557751562500002,11.029296875,22.1668515625C11.029296875,22.1668515625,13.235136875,22.1668515625,13.235136875,22.1668515625C13.235136875,22.1668515625,13.235136875,22.1668515625,13.235136875,22.1668515625ZM22.058496875,22.1668515625C22.058496875,21.557751562500002,21.564696875,21.063931562500002,20.955596874999998,21.063931562500002C20.346486875,21.063931562500002,19.852666875,21.557751562500002,19.852666875,22.1668515625C19.852666875,22.1668515625,22.058496875,22.1668515625,22.058496875,22.1668515625C22.058496875,22.1668515625,22.058496875,22.1668515625,22.058496875,22.1668515625ZM20.955596874999998,25.3181515625C20.955596874999998,25.3181515625,22.058496875,25.3181515625,22.058496875,25.3181515625C22.058496875,25.3181515625,22.058496875,25.3181515625,22.058496875,25.3181515625C22.058496875,25.3181515625,20.955596874999998,25.3181515625,20.955596874999998,25.3181515625C20.955596874999998,25.3181515625,20.955596874999998,25.3181515625,20.955596874999998,25.3181515625ZM17.646826875000002,16.9148815625C17.646826875000002,16.3057515625,17.153036874999998,15.811961562499999,16.543906875,15.811961562499999C15.934776875,15.811961562499999,15.440986875,16.3057515625,15.440986875,16.9148815625C15.440986875,16.9148815625,17.646826875000002,16.9148815625,17.646826875000002,16.9148815625C17.646826875000002,16.9148815625,17.646826875000002,16.9148815625,17.646826875000002,16.9148815625ZM15.440986875,23.2172515625C15.440986875,23.8263515625,15.934776875,24.3201515625,16.543906875,24.3201515625C17.153036874999998,24.3201515625,17.646826875000002,23.8263515625,17.646826875000002,23.2172515625C17.646826875000002,23.2172515625,15.440986875,23.2172515625,15.440986875,23.2172515625C15.440986875,23.2172515625,15.440986875,23.2172515625,15.440986875,23.2172515625ZM18.749746875,11.6103515625C18.749746875,11.6103515625,14.338056875,11.6103515625,14.338056875,11.6103515625C14.338056875,11.6103515625,14.338056875,13.8161915625,14.338056875,13.8161915625C14.338056875,13.8161915625,18.749746875,13.8161915625,18.749746875,13.8161915625C18.749746875,13.8161915625,18.749746875,11.6103515625,18.749746875,11.6103515625C18.749746875,11.6103515625,18.749746875,11.6103515625,18.749746875,11.6103515625ZM19.852666875,14.8140715625C19.852666875,14.8140715625,19.852666875,17.9652815625,19.852666875,17.9652815625C19.852666875,17.9652815625,22.058496875,17.9652815625,22.058496875,17.9652815625C22.058496875,17.9652815625,22.058496875,14.8140715625,22.058496875,14.8140715625C22.058496875,14.8140715625,19.852666875,14.8140715625,19.852666875,14.8140715625C19.852666875,14.8140715625,19.852666875,14.8140715625,19.852666875,14.8140715625ZM13.235136875,17.9652815625C13.235136875,17.9652815625,13.235136875,14.8140715625,13.235136875,14.8140715625C13.235136875,14.8140715625,11.029296875,14.8140715625,11.029296875,14.8140715625C11.029296875,14.8140715625,11.029296875,17.9652815625,11.029296875,17.9652815625C11.029296875,17.9652815625,13.235136875,17.9652815625,13.235136875,17.9652815625C13.235136875,17.9652815625,13.235136875,17.9652815625,13.235136875,17.9652815625ZM18.749746875,13.8161915625C19.410196875,13.8161915625,19.852666875,14.3130515625,19.852666875,14.8140715625C19.852666875,14.8140715625,22.058496875,14.8140715625,22.058496875,14.8140715625C22.058496875,12.9946215625,20.525816875,11.6103515625,18.749746875,11.6103515625C18.749746875,11.6103515625,18.749746875,13.8161915625,18.749746875,13.8161915625C18.749746875,13.8161915625,18.749746875,13.8161915625,18.749746875,13.8161915625ZM14.338056875,11.6103515625C12.562006875,11.6103515625,11.029296875,12.9946215625,11.029296875,14.8140715625C11.029296875,14.8140715625,13.235136875,14.8140715625,13.235136875,14.8140715625C13.235136875,14.3130515625,13.677606875,13.8161915625,14.338056875,13.8161915625C14.338056875,13.8161915625,14.338056875,11.6103515625,14.338056875,11.6103515625C14.338056875,11.6103515625,14.338056875,11.6103515625,14.338056875,11.6103515625ZM14.338056875,28.5218515625C14.338056875,28.5218515625,18.749746875,28.5218515625,18.749746875,28.5218515625C18.749746875,28.5218515625,18.749746875,26.3159515625,18.749746875,26.3159515625C18.749746875,26.3159515625,14.338056875,26.3159515625,14.338056875,26.3159515625C14.338056875,26.3159515625,14.338056875,28.5218515625,14.338056875,28.5218515625C14.338056875,28.5218515625,14.338056875,28.5218515625,14.338056875,28.5218515625ZM13.235136875,25.3181515625C13.235136875,25.3181515625,13.235136875,22.1668515625,13.235136875,22.1668515625C13.235136875,22.1668515625,11.029296875,22.1668515625,11.029296875,22.1668515625C11.029296875,22.1668515625,11.029296875,25.3181515625,11.029296875,25.3181515625C11.029296875,25.3181515625,13.235136875,25.3181515625,13.235136875,25.3181515625C13.235136875,25.3181515625,13.235136875,25.3181515625,13.235136875,25.3181515625ZM19.852666875,22.1668515625C19.852666875,22.1668515625,19.852666875,25.3181515625,19.852666875,25.3181515625C19.852666875,25.3181515625,22.058496875,25.3181515625,22.058496875,25.3181515625C22.058496875,25.3181515625,22.058496875,22.1668515625,22.058496875,22.1668515625C22.058496875,22.1668515625,19.852666875,22.1668515625,19.852666875,22.1668515625C19.852666875,22.1668515625,19.852666875,22.1668515625,19.852666875,22.1668515625ZM14.338056875,26.3159515625C13.677606875,26.3159515625,13.235136875,25.8191515625,13.235136875,25.3181515625C13.235136875,25.3181515625,11.029296875,25.3181515625,11.029296875,25.3181515625C11.029296875,27.1375515625,12.562006875,28.5218515625,14.338056875,28.5218515625C14.338056875,28.5218515625,14.338056875,26.3159515625,14.338056875,26.3159515625C14.338056875,26.3159515625,14.338056875,26.3159515625,14.338056875,26.3159515625ZM18.749746875,28.5218515625C20.525816875,28.5218515625,22.058496875,27.1375515625,22.058496875,25.3181515625C22.058496875,25.3181515625,19.852666875,25.3181515625,19.852666875,25.3181515625C19.852666875,25.8191515625,19.410196875,26.3159515625,18.749746875,26.3159515625C18.749746875,26.3159515625,18.749746875,28.5218515625,18.749746875,28.5218515625C18.749746875,28.5218515625,18.749746875,28.5218515625,18.749746875,28.5218515625ZM15.440986875,16.9148815625C15.440986875,16.9148815625,15.440986875,23.2172515625,15.440986875,23.2172515625C15.440986875,23.2172515625,17.646826875000002,23.2172515625,17.646826875000002,23.2172515625C17.646826875000002,23.2172515625,17.646826875000002,16.9148815625,17.646826875000002,16.9148815625C17.646826875000002,16.9148815625,15.440986875,16.9148815625,15.440986875,16.9148815625C15.440986875,16.9148815625,15.440986875,16.9148815625,15.440986875,16.9148815625Z" fill="url(#master_svg2_8779_158069)" fill-opacity="1"/></g></g></svg>