<svg xmlns="http://www.w3.org/2000/svg" xmlns:xlink="http://www.w3.org/1999/xlink" fill="none" version="1.1" width="45.0875244140625" height="50.084716796875" viewBox="0 0 45.0875244140625 50.084716796875"><defs><filter id="master_svg0_8783_159689" filterUnits="objectBoundingBox" color-interpolation-filters="sRGB" x="-8" y="-4" width="49.087646484375" height="54.08472442626953"><feFlood flood-opacity="0" result="BackgroundImageFix"/><feColorMatrix in="SourceAlpha" type="matrix" values="0 0 0 0 0 0 0 0 0 0 0 0 0 0 0 0 0 0 127 0"/><feOffset dy="4" dx="0"/><feGaussianBlur stdDeviation="2"/><feColorMatrix type="matrix" values="0 0 0 0 0.39148372411727905 0 0 0 0 0.16468748450279236 0 0 0 0 0.637499988079071 0 0 0 0.10000000149011612 0"/><feBlend mode="normal" in2="BackgroundImageFix" result="effect1_dropShadow"/><feBlend mode="normal" in="SourceGraphic" in2="effect1_dropShadow" result="shape"/></filter><linearGradient x1="0.08888891339302063" y1="0.033333320170640945" x2="0.5" y2="1" id="master_svg1_8802_159226"><stop offset="0%" stop-color="#8381FF" stop-opacity="1"/><stop offset="100%" stop-color="#6551FC" stop-opacity="1"/></linearGradient><linearGradient x1="-0.6060606241226196" y1="1.558823585510254" x2="0.9545454382896423" y2="-0.17647045850753784" id="master_svg2_8783_159910"><stop offset="0%" stop-color="#B4ADFF" stop-opacity="1"/><stop offset="100%" stop-color="#B1ADFF" stop-opacity="0"/></linearGradient></defs><g><g><g><g filter="url(#master_svg0_8783_159689)"><path d="M6,9.35281C6,5.2919599999999996,9.29196,2,13.35281,2C13.35281,2,25.3805,2,25.3805,2C27.3305,2,29.2008,2.77467,30.5796,4.1535899999999994C30.5796,4.1535899999999994,36.9341,10.50801,36.9341,10.50801C38.313,11.88688,39.0876,13.7571,39.0876,15.7072C39.0876,15.7072,39.0876,32.731899999999996,39.0876,32.731899999999996C39.0876,36.7927,35.7956,40.0847,31.7348,40.0847C31.7348,40.0847,13.35281,40.0847,13.35281,40.0847C9.29196,40.0847,6,36.7927,6,32.731899999999996C6,32.731899999999996,6,9.35281,6,9.35281C6,9.35281,6,9.35281,6,9.35281Z" fill="url(#master_svg1_8802_159226)" fill-opacity="1"/></g><g><path d="M8.941162109375,26.4777300390625C8.941162109375,24.0412200390625,10.916342109375,22.0660400390625,13.352852109375,22.0660400390625C13.352852109375,22.0660400390625,31.734862109375,22.0660400390625,31.734862109375,22.0660400390625C34.171362109374996,22.0660400390625,36.146562109375,24.0412200390625,36.146562109375,26.4777300390625C36.146562109375,26.4777300390625,36.146562109375,30.1541300390625,36.146562109375,30.1541300390625C36.146562109375,32.5906400390625,34.171362109374996,34.5658400390625,31.734862109375,34.5658400390625C31.734862109375,34.5658400390625,16.293972109374998,34.5658400390625,16.293972109374998,34.5658400390625C12.233122109375,34.5658400390625,8.941162109375,31.2738200390625,8.941162109375,27.2130100390625C8.941162109375,27.2130100390625,8.941162109375,26.4777300390625,8.941162109375,26.4777300390625C8.941162109375,26.4777300390625,8.941162109375,26.4777300390625,8.941162109375,26.4777300390625Z" fill="url(#master_svg2_8783_159910)" fill-opacity="1"/></g></g></g><g><path d="M16.034163828125,8.090087890625L16.034163828125,10.103177890625L18.471403828125,10.103177890625L18.471403828125,8.090087890625L16.034163828125,8.090087890625ZM13.596923828125,10.103177890625L13.596923828125,12.116267890625L16.034163828125,12.116267890625L16.034163828125,10.103177890625L13.596923828125,10.103177890625ZM16.034163828125,12.116267890625L16.034163828125,14.129357890625L18.471403828125,14.129357890625L18.471403828125,12.116267890625L16.034163828125,12.116267890625ZM13.596923828125,14.128987890625L13.596923828125,16.142077890625L16.034163828125,16.142077890625L16.034163828125,14.129357890625L13.596923828125,14.128987890625ZM16.034163828125,18.155187890625L18.471403828125,18.155187890625L18.471403828125,16.142077890625L16.034163828125,16.142077890625L16.034163828125,18.155187890625ZM13.596923828125,20.168287890625002L16.034163828125,20.168287890625002L13.596923828125,18.155187890625L13.596923828125,20.168287890625002ZM16.034163828125,20.168287890625002L16.034163828125,22.181387890625L18.471403828125,22.181387890625L18.471403828125,20.168287890625002L16.034163828125,20.168287890625002Z" fill="#FFFFFF" fill-opacity="1"/></g><g><path d="M13.597238658125,22.071533203125L13.597238658125,28.051833203125C13.597238658125,28.616393203125,14.040401828125,29.074023203125,14.586727828125,29.074023203125L17.481913828125002,29.074023203125C18.028553828125,29.074023203125,18.471403828125,28.616393203125,18.471403828125,28.051833203125L18.471403828125,22.071533203125L13.596923828125,22.071533203125L13.597238658125,22.071533203125ZM17.371203828125,27.348563203125L14.697753828125,27.348563203125L14.697753828125,26.143323203125L17.371203828125,26.143323203125L17.371203828125,27.348563203125Z" fill="#FFFFFF" fill-opacity="1"/></g></g></svg>