<svg xmlns="http://www.w3.org/2000/svg" xmlns:xlink="http://www.w3.org/1999/xlink" fill="none" version="1.1" width="33.0875244140625" height="38.084716796875" viewBox="0 0 33.0875244140625 38.084716796875"><defs><linearGradient x1="0.08888891339302063" y1="0.033333320170640945" x2="0.5" y2="1" id="master_svg0_8802_159226"><stop offset="0%" stop-color="#8381FF" stop-opacity="1"/><stop offset="100%" stop-color="#6551FC" stop-opacity="1"/></linearGradient><linearGradient x1="-0.6060606241226196" y1="1.558823585510254" x2="0.9545454382896423" y2="-0.17647045850753784" id="master_svg1_8783_159910"><stop offset="0%" stop-color="#B4ADFF" stop-opacity="1"/><stop offset="100%" stop-color="#B1ADFF" stop-opacity="0"/></linearGradient></defs><g><g><g><g><path d="M0,7.35281C0,3.29196,3.29196,0,7.35281,0C7.35281,0,19.3805,0,19.3805,0C21.3305,0,23.2008,0.77467,24.5796,2.15359C24.5796,2.15359,30.9341,8.50801,30.9341,8.50801C32.313,9.88688,33.0876,11.7571,33.0876,13.7072C33.0876,13.7072,33.0876,30.7319,33.0876,30.7319C33.0876,34.7927,29.7956,38.0847,25.7348,38.0847C25.7348,38.0847,7.35281,38.0847,7.35281,38.0847C3.29196,38.0847,0,34.7927,0,30.7319C0,30.7319,0,7.35281,0,7.35281C0,7.35281,0,7.35281,0,7.35281Z" fill="url(#master_svg0_8802_159226)" fill-opacity="1"/></g><g><path d="M2.941162109375,24.4777300390625C2.941162109375,22.0412200390625,4.916342109375,20.0660400390625,7.352852109375,20.0660400390625C7.352852109375,20.0660400390625,25.734862109375,20.0660400390625,25.734862109375,20.0660400390625C28.171362109375,20.0660400390625,30.146562109375,22.0412200390625,30.146562109375,24.4777300390625C30.146562109375,24.4777300390625,30.146562109375,28.1541300390625,30.146562109375,28.1541300390625C30.146562109375,30.5906400390625,28.171362109375,32.5658400390625,25.734862109375,32.5658400390625C25.734862109375,32.5658400390625,10.293972109375,32.5658400390625,10.293972109375,32.5658400390625C6.2331221093749996,32.5658400390625,2.941162109375,29.2738200390625,2.941162109375,25.2130100390625C2.941162109375,25.2130100390625,2.941162109375,24.4777300390625,2.941162109375,24.4777300390625C2.941162109375,24.4777300390625,2.941162109375,24.4777300390625,2.941162109375,24.4777300390625Z" fill="url(#master_svg1_8783_159910)" fill-opacity="1"/></g></g></g><g><path d="M10.034163828125,6.090087890625L10.034163828125,8.103177890625L12.471403828125,8.103177890625L12.471403828125,6.090087890625L10.034163828125,6.090087890625ZM7.596923828125,8.103177890625L7.596923828125,10.116267890625L10.034163828125,10.116267890625L10.034163828125,8.103177890625L7.596923828125,8.103177890625ZM10.034163828125,12.129357890625L12.471403828125,12.129357890625L12.471403828125,10.116267890625L10.034163828125,10.116267890625L10.034163828125,12.129357890625ZM7.596923828125,12.128987890625L7.596923828125,14.142077890625L10.034163828125,14.142077890625L10.034163828125,12.129357890625L7.596923828125,12.128987890625ZM10.034163828125,16.155187890625L12.471403828125,16.155187890625L12.471403828125,14.142077890625L10.034163828125,14.142077890625L10.034163828125,16.155187890625ZM7.596923828125,18.168287890625002L10.034163828125,18.168287890625002L7.596923828125,16.155187890625L7.596923828125,18.168287890625002ZM10.034163828125,18.168287890625002L10.034163828125,20.181387890625L12.471403828125,20.181387890625L12.471403828125,18.168287890625002L10.034163828125,18.168287890625002Z" fill="#FFFFFF" fill-opacity="1"/></g><g><path d="M7.597238658125,20.071533203125L7.597238658125,26.051833203125C7.597238658125,26.616393203125,8.040401828125,27.074023203125,8.586727828125,27.074023203125L11.481913828125,27.074023203125C12.028553828125,27.074023203125,12.471403828125,26.616393203125,12.471403828125,26.051833203125L12.471403828125,20.071533203125L7.596923828125,20.071533203125L7.597238658125,20.071533203125ZM11.371203828125001,25.348563203125L8.697753828125,25.348563203125L8.697753828125,24.143323203125L11.371203828125001,24.143323203125L11.371203828125001,25.348563203125Z" fill="#FFFFFF" fill-opacity="1"/></g></g></svg>