<svg xmlns="http://www.w3.org/2000/svg" xmlns:xlink="http://www.w3.org/1999/xlink" fill="none" version="1.1" width="45.087646484375" height="50.084716796875" viewBox="0 0 45.087646484375 50.084716796875"><defs><filter id="master_svg0_8783_160385" filterUnits="objectBoundingBox" color-interpolation-filters="sRGB" x="-8" y="-4" width="49.087646484375" height="54.08472442626953"><feFlood flood-opacity="0" result="BackgroundImageFix"/><feColorMatrix in="SourceAlpha" type="matrix" values="0 0 0 0 0 0 0 0 0 0 0 0 0 0 0 0 0 0 127 0"/><feOffset dy="4" dx="0"/><feGaussianBlur stdDeviation="2"/><feColorMatrix type="matrix" values="0 0 0 0 0.39148372411727905 0 0 0 0 0.16468748450279236 0 0 0 0 0.637499988079071 0 0 0 0.10000000149011612 0"/><feBlend mode="normal" in2="BackgroundImageFix" result="effect1_dropShadow"/><feBlend mode="normal" in="SourceGraphic" in2="effect1_dropShadow" result="shape"/></filter><linearGradient x1="0.08888891339302063" y1="0.033333320170640945" x2="0.5" y2="1" id="master_svg1_8783_160564"><stop offset="0%" stop-color="#FD7878" stop-opacity="1"/><stop offset="100%" stop-color="#FC5151" stop-opacity="1"/></linearGradient><linearGradient x1="-0.6060606241226196" y1="1.558823585510254" x2="0.9545454382896423" y2="-0.17647045850753784" id="master_svg2_8783_160476"><stop offset="0%" stop-color="#FFADAD" stop-opacity="1"/><stop offset="100%" stop-color="#FFADAD" stop-opacity="0"/></linearGradient></defs><g><g><g><g filter="url(#master_svg0_8783_160385)"><path d="M6,9.35281C6,5.2919599999999996,9.29196,2,13.35281,2C13.35281,2,25.3805,2,25.3805,2C27.3305,2,29.2008,2.77467,30.5796,4.1535899999999994C30.5796,4.1535899999999994,36.9341,10.50801,36.9341,10.50801C38.313,11.88688,39.0876,13.7571,39.0876,15.7072C39.0876,15.7072,39.0876,32.731899999999996,39.0876,32.731899999999996C39.0876,36.7927,35.7956,40.0847,31.7348,40.0847C31.7348,40.0847,13.35281,40.0847,13.35281,40.0847C9.29196,40.0847,6,36.7927,6,32.731899999999996C6,32.731899999999996,6,9.35281,6,9.35281C6,9.35281,6,9.35281,6,9.35281Z" fill="url(#master_svg1_8783_160564)" fill-opacity="1"/></g><g><path d="M8.941162109375,26.4777300390625C8.941162109375,24.0412200390625,10.916342109375,22.0660400390625,13.352852109375,22.0660400390625C13.352852109375,22.0660400390625,31.734862109375,22.0660400390625,31.734862109375,22.0660400390625C34.171362109374996,22.0660400390625,36.146562109375,24.0412200390625,36.146562109375,26.4777300390625C36.146562109375,26.4777300390625,36.146562109375,30.1541300390625,36.146562109375,30.1541300390625C36.146562109375,32.5906400390625,34.171362109374996,34.5658400390625,31.734862109375,34.5658400390625C31.734862109375,34.5658400390625,16.293972109374998,34.5658400390625,16.293972109374998,34.5658400390625C12.233122109375,34.5658400390625,8.941162109375,31.2738200390625,8.941162109375,27.2130100390625C8.941162109375,27.2130100390625,8.941162109375,26.4777300390625,8.941162109375,26.4777300390625C8.941162109375,26.4777300390625,8.941162109375,26.4777300390625,8.941162109375,26.4777300390625Z" fill="url(#master_svg2_8783_160476)" fill-opacity="1"/></g></g></g><g><path d="M28.84361796875,24.9639189453125C27.534817968749998,24.8669189453125,26.27441796875,24.3821189453125,25.25641796875,23.5096189453125C23.268857968749998,23.9458189453125,21.378267968750002,24.576018945312498,19.48767796875,25.3517189453125C17.98490796875,28.0179189453125,16.57908796875,29.3752189453125,15.36716796875,29.3752189453125C15.12478796875,29.3752189453125,14.83392796875,29.3267189453125,14.64001996875,29.1813189453125C14.10677796875,28.9389189453125,13.81591796875,28.4057189453125,13.81591796875,27.8725189453125C13.81591796875,27.4362189453125,13.91287116875,26.2242189453125,18.51814796875,24.2367189453125C19.58462796875,22.2976189453125,20.40873796875,20.3101189453125,21.08740796875,18.2256289453125C20.50568796875,17.0621889453125,19.245297968750002,14.2020689453125,20.11787796875,12.7477729453125C20.40873796875,12.2145319453125,20.99045796875,11.9236722453125,21.62064796875,11.9721488053125C22.10541796875,11.9721488053125,22.590177968749998,12.2145319453125,22.88103796875,12.6023449453125C23.511237968750002,13.4749189453125,23.462757968749997,15.3170289453125,22.63865796875,18.031718945312498C23.41427796875,19.4860189453125,24.43231796875,20.7948889453125,25.64421796875,21.9098489453125C26.66221796875,21.7159389453125,27.68021796875,21.5705089453125,28.69821796875,21.5705089453125C30.97661796875,21.618988945312502,31.31591796875,22.685518945312502,31.26751796875,23.3157189453125C31.26751796875,24.9639189453125,29.66771796875,24.9639189453125,28.84361796875,24.9639189453125ZM15.27021796875,27.9694189453125L15.415647968750001,27.9209189453125C16.09431796875,27.6785189453125,16.62755796875,27.1938189453125,17.01536796875,26.5636189453125C16.28822796875,26.8544189453125,15.70650796875,27.3392189453125,15.27021796875,27.9694189453125ZM21.71759796875,13.4264489453125L21.57216796875,13.4264489453125C21.52369796875,13.4264489453125,21.42673796875,13.4264489453125,21.378267968750002,13.4749189453125C21.18435796875,14.2990289453125,21.32978796875,15.1715989453125,21.66912796875,15.9472289453125C21.95998796875,15.1231289453125,21.95998796875,14.2505489453125,21.71759796875,13.4264489453125ZM22.05693796875,20.4555489453125L22.00845796875,20.5525089453125L21.95998796875,20.5040289453125C21.52369796875,21.618988945312502,21.038927968750002,22.7339189453125,20.50568796875,23.8004189453125L20.60263796875,23.7519189453125L20.60263796875,23.848918945312498C21.66912796875,23.4611189453125,22.83256796875,23.1217189453125,23.89901796875,22.8794189453125L23.85061796875,22.8309189453125L23.99601796875,22.8309189453125C23.268847968750002,22.1037189453125,22.590177968749998,21.279648945312502,22.05693796875,20.4555489453125ZM28.64971796875,23.0248189453125C28.21341796875,23.0248189453125,27.825617968750002,23.0248189453125,27.38931796875,23.1217189453125C27.87411796875,23.364118945312498,28.35891796875,23.4611189453125,28.84361796875,23.5096189453125C29.18301796875,23.5580189453125,29.522317968750002,23.5096189453125,29.81321796875,23.412618945312502C29.81321796875,23.2672189453125,29.61931796875,23.0248189453125,28.64971796875,23.0248189453125Z" fill="#FFFFFF" fill-opacity="1"/></g></g></svg>