<svg xmlns="http://www.w3.org/2000/svg" xmlns:xlink="http://www.w3.org/1999/xlink" fill="none" version="1.1" width="33.087646484375" height="38.084716796875" viewBox="0 0 33.087646484375 38.084716796875"><defs><linearGradient x1="0.08888891339302063" y1="0.033333320170640945" x2="0.5" y2="1" id="master_svg0_8783_160564"><stop offset="0%" stop-color="#FD7878" stop-opacity="1"/><stop offset="100%" stop-color="#FC5151" stop-opacity="1"/></linearGradient><linearGradient x1="-0.6060606241226196" y1="1.558823585510254" x2="0.9545454382896423" y2="-0.17647045850753784" id="master_svg1_8783_160476"><stop offset="0%" stop-color="#FFADAD" stop-opacity="1"/><stop offset="100%" stop-color="#FFADAD" stop-opacity="0"/></linearGradient></defs><g><g><g><g><path d="M0,7.35281C0,3.29196,3.29196,0,7.35281,0C7.35281,0,19.3805,0,19.3805,0C21.3305,0,23.2008,0.77467,24.5796,2.15359C24.5796,2.15359,30.9341,8.50801,30.9341,8.50801C32.313,9.88688,33.0876,11.7571,33.0876,13.7072C33.0876,13.7072,33.0876,30.7319,33.0876,30.7319C33.0876,34.7927,29.7956,38.0847,25.7348,38.0847C25.7348,38.0847,7.35281,38.0847,7.35281,38.0847C3.29196,38.0847,0,34.7927,0,30.7319C0,30.7319,0,7.35281,0,7.35281C0,7.35281,0,7.35281,0,7.35281Z" fill="url(#master_svg0_8783_160564)" fill-opacity="1"/></g><g><path d="M2.941162109375,24.4777300390625C2.941162109375,22.0412200390625,4.916342109375,20.0660400390625,7.352852109375,20.0660400390625C7.352852109375,20.0660400390625,25.734862109375,20.0660400390625,25.734862109375,20.0660400390625C28.171362109375,20.0660400390625,30.146562109375,22.0412200390625,30.146562109375,24.4777300390625C30.146562109375,24.4777300390625,30.146562109375,28.1541300390625,30.146562109375,28.1541300390625C30.146562109375,30.5906400390625,28.171362109375,32.5658400390625,25.734862109375,32.5658400390625C25.734862109375,32.5658400390625,10.293972109375,32.5658400390625,10.293972109375,32.5658400390625C6.2331221093749996,32.5658400390625,2.941162109375,29.2738200390625,2.941162109375,25.2130100390625C2.941162109375,25.2130100390625,2.941162109375,24.4777300390625,2.941162109375,24.4777300390625C2.941162109375,24.4777300390625,2.941162109375,24.4777300390625,2.941162109375,24.4777300390625Z" fill="url(#master_svg1_8783_160476)" fill-opacity="1"/></g></g></g><g><path d="M22.84361796875,22.9639189453125C21.534817968749998,22.8669189453125,20.27441796875,22.3821189453125,19.25641796875,21.5096189453125C17.268857968749998,21.9458189453125,15.37826796875,22.576018945312498,13.487677968749999,23.3517189453125C11.98490796875,26.0179189453125,10.57908796875,27.3752189453125,9.36716796875,27.3752189453125C9.12478796875,27.3752189453125,8.83392796875,27.3267189453125,8.64001996875,27.1813189453125C8.10677796875,26.9389189453125,7.81591796875,26.4057189453125,7.81591796875,25.8725189453125C7.81591796875,25.4362189453125,7.91287116875,24.2242189453125,12.51814796875,22.2367189453125C13.584627968749999,20.2976189453125,14.40873796875,18.3101189453125,15.08740796875,16.2256289453125C14.50568796875,15.0621889453125,13.24529796875,12.2020689453125,14.117877968750001,10.7477729453125C14.40873796875,10.2145319453125,14.99045796875,9.9236722453125,15.62064796875,9.9721488053125C16.10541796875,9.9721488053125,16.590177968749998,10.2145319453125,16.88103796875,10.6023449453125C17.511237968750002,11.4749189453125,17.462757968749997,13.3170289453125,16.63865796875,16.031718945312498C17.41427796875,17.4860189453125,18.43231796875,18.7948889453125,19.64421796875,19.9098489453125C20.66221796875,19.7159389453125,21.68021796875,19.5705089453125,22.69821796875,19.5705089453125C24.97661796875,19.618988945312502,25.31591796875,20.685518945312502,25.26751796875,21.3157189453125C25.26751796875,22.9639189453125,23.66771796875,22.9639189453125,22.84361796875,22.9639189453125ZM9.27021796875,25.9694189453125L9.415647968750001,25.9209189453125C10.09431796875,25.6785189453125,10.62755796875,25.1938189453125,11.01536796875,24.5636189453125C10.28822796875,24.8544189453125,9.70650796875,25.3392189453125,9.27021796875,25.9694189453125ZM15.717597968749999,11.4264489453125L15.57216796875,11.4264489453125C15.52369796875,11.4264489453125,15.42673796875,11.4264489453125,15.37826796875,11.4749189453125C15.18435796875,12.2990289453125,15.32978796875,13.1715989453125,15.66912796875,13.9472289453125C15.95998796875,13.1231289453125,15.95998796875,12.2505489453125,15.717597968749999,11.4264489453125ZM16.05693796875,18.4555489453125L16.00845796875,18.5525089453125L15.95998796875,18.5040289453125C15.52369796875,19.618988945312502,15.03892796875,20.7339189453125,14.50568796875,21.8004189453125L14.602637968749999,21.7519189453125L14.602637968749999,21.848918945312498C15.66912796875,21.4611189453125,16.83256796875,21.1217189453125,17.89901796875,20.8794189453125L17.85061796875,20.8309189453125L17.99601796875,20.8309189453125C17.268847968750002,20.1037189453125,16.590177968749998,19.279648945312502,16.05693796875,18.4555489453125ZM22.64971796875,21.0248189453125C22.21341796875,21.0248189453125,21.825617968750002,21.0248189453125,21.38931796875,21.1217189453125C21.87411796875,21.364118945312498,22.35891796875,21.4611189453125,22.84361796875,21.5096189453125C23.18301796875,21.5580189453125,23.522317968750002,21.5096189453125,23.81321796875,21.412618945312502C23.81321796875,21.2672189453125,23.61931796875,21.0248189453125,22.64971796875,21.0248189453125Z" fill="#FFFFFF" fill-opacity="1"/></g></g></svg>