<svg xmlns="http://www.w3.org/2000/svg" xmlns:xlink="http://www.w3.org/1999/xlink" fill="none" version="1.1" width="33.087646484375" height="38.084716796875" viewBox="0 0 33.087646484375 38.084716796875"><defs><linearGradient x1="0.08888891339302063" y1="0.033333320170640945" x2="0.5" y2="1" id="master_svg0_8783_160508"><stop offset="0%" stop-color="#FF9681" stop-opacity="1"/><stop offset="100%" stop-color="#FC6851" stop-opacity="1"/></linearGradient><linearGradient x1="-0.6060606241226196" y1="1.558823585510254" x2="0.9545454382896423" y2="-0.17647045850753784" id="master_svg1_8779_158911"><stop offset="0%" stop-color="#FFB5AD" stop-opacity="1"/><stop offset="100%" stop-color="#FFADAD" stop-opacity="0"/></linearGradient></defs><g><g><g><path d="M0,7.35281C0,3.29196,3.29196,0,7.35281,0C7.35281,0,19.3805,0,19.3805,0C21.3305,0,23.2008,0.77467,24.5796,2.15359C24.5796,2.15359,30.9341,8.50801,30.9341,8.50801C32.313,9.88688,33.0876,11.7571,33.0876,13.7072C33.0876,13.7072,33.0876,30.7319,33.0876,30.7319C33.0876,34.7927,29.7956,38.0847,25.7348,38.0847C25.7348,38.0847,7.35281,38.0847,7.35281,38.0847C3.29196,38.0847,0,34.7927,0,30.7319C0,30.7319,0,7.35281,0,7.35281C0,7.35281,0,7.35281,0,7.35281Z" fill="url(#master_svg0_8783_160508)" fill-opacity="1"/></g><g><path d="M2.941162109375,24.4777300390625C2.941162109375,22.0412200390625,4.916342109375,20.0660400390625,7.352852109375,20.0660400390625C7.352852109375,20.0660400390625,25.734862109375,20.0660400390625,25.734862109375,20.0660400390625C28.171362109375,20.0660400390625,30.146562109375,22.0412200390625,30.146562109375,24.4777300390625C30.146562109375,24.4777300390625,30.146562109375,28.1541300390625,30.146562109375,28.1541300390625C30.146562109375,30.5906400390625,28.171362109375,32.5658400390625,25.734862109375,32.5658400390625C25.734862109375,32.5658400390625,10.293972109375,32.5658400390625,10.293972109375,32.5658400390625C6.2331221093749996,32.5658400390625,2.941162109375,29.2738200390625,2.941162109375,25.2130100390625C2.941162109375,25.2130100390625,2.941162109375,24.4777300390625,2.941162109375,24.4777300390625C2.941162109375,24.4777300390625,2.941162109375,24.4777300390625,2.941162109375,24.4777300390625Z" fill="url(#master_svg1_8779_158911)" fill-opacity="1"/></g></g><g><path d="M14.7802734375,28.2282888671875L25.2948734375,28.2282888671875L25.2948734375,13.9910888671875L22.8321834375,13.9910888671875L22.8321834375,25.7642888671875L14.7802734375,25.7642888671875L14.7802734375,28.2282888671875Z" fill="#F9F6F6" fill-opacity="1"/></g><g><path d="M20.791324609375,23.668896289062502L20.791324609375,10.6636962890625L7.792724609375,10.6636962890625L7.792724609375,23.668896289062502L20.791324609375,23.668896289062502ZM12.195474609375001,18.770526289062502L12.195474609375001,21.7595962890625L10.028604609375,21.7595962890625L10.028604609375,12.5584862890625L12.195474609375001,12.5584862890625L12.195474609375001,12.5585562890625L16.807394609375002,12.5585562890625C17.817624609375002,12.5585562890625,18.639524609375,13.4342062890625,18.639524609375,14.5105262890625L18.639524609375,16.818596289062498C18.639524609375,17.8949162890625,17.817624609375002,18.7705662890625,16.807394609375002,18.7705662890625L12.195474609375001,18.7705662890625L12.195474609375001,18.770526289062502Z" fill="#F9F6F6" fill-opacity="1"/></g><g><path d="M12.2589111328125,14.6551513671875L16.3753511328125,14.6551513671875L16.3753511328125,16.5552413671875L12.2589111328125,16.5552413671875L12.2589111328125,14.6551513671875Z" fill="#F9F6F6" fill-opacity="1"/></g></g></svg>