<svg xmlns="http://www.w3.org/2000/svg" xmlns:xlink="http://www.w3.org/1999/xlink" fill="none" version="1.1" width="45.087646484375" height="50.084716796875" viewBox="0 0 45.087646484375 50.084716796875"><defs><filter id="master_svg0_8779_158777" filterUnits="objectBoundingBox" color-interpolation-filters="sRGB" x="-8" y="-4" width="49.087646484375" height="54.08472442626953"><feFlood flood-opacity="0" result="BackgroundImageFix"/><feColorMatrix in="SourceAlpha" type="matrix" values="0 0 0 0 0 0 0 0 0 0 0 0 0 0 0 0 0 0 127 0"/><feOffset dy="4" dx="0"/><feGaussianBlur stdDeviation="2"/><feColorMatrix type="matrix" values="0 0 0 0 0.39148372411727905 0 0 0 0 0.16468748450279236 0 0 0 0 0.637499988079071 0 0 0 0.10000000149011612 0"/><feBlend mode="normal" in2="BackgroundImageFix" result="effect1_dropShadow"/><feBlend mode="normal" in="SourceGraphic" in2="effect1_dropShadow" result="shape"/></filter><linearGradient x1="0.08888891339302063" y1="0.033333320170640945" x2="0.5" y2="1" id="master_svg1_8783_160508"><stop offset="0%" stop-color="#FF9681" stop-opacity="1"/><stop offset="100%" stop-color="#FC6851" stop-opacity="1"/></linearGradient><linearGradient x1="-0.6060606241226196" y1="1.558823585510254" x2="0.9545454382896423" y2="-0.17647045850753784" id="master_svg2_8779_158911"><stop offset="0%" stop-color="#FFB5AD" stop-opacity="1"/><stop offset="100%" stop-color="#FFADAD" stop-opacity="0"/></linearGradient></defs><g><g><g filter="url(#master_svg0_8779_158777)"><path d="M6,9.35281C6,5.2919599999999996,9.29196,2,13.35281,2C13.35281,2,25.3805,2,25.3805,2C27.3305,2,29.2008,2.77467,30.5796,4.1535899999999994C30.5796,4.1535899999999994,36.9341,10.50801,36.9341,10.50801C38.313,11.88688,39.0876,13.7571,39.0876,15.7072C39.0876,15.7072,39.0876,32.731899999999996,39.0876,32.731899999999996C39.0876,36.7927,35.7956,40.0847,31.7348,40.0847C31.7348,40.0847,13.35281,40.0847,13.35281,40.0847C9.29196,40.0847,6,36.7927,6,32.731899999999996C6,32.731899999999996,6,9.35281,6,9.35281C6,9.35281,6,9.35281,6,9.35281Z" fill="url(#master_svg1_8783_160508)" fill-opacity="1"/></g><g><path d="M8.941162109375,26.4777300390625C8.941162109375,24.0412200390625,10.916342109375,22.0660400390625,13.352852109375,22.0660400390625C13.352852109375,22.0660400390625,31.734862109375,22.0660400390625,31.734862109375,22.0660400390625C34.171362109374996,22.0660400390625,36.146562109375,24.0412200390625,36.146562109375,26.4777300390625C36.146562109375,26.4777300390625,36.146562109375,30.1541300390625,36.146562109375,30.1541300390625C36.146562109375,32.5906400390625,34.171362109374996,34.5658400390625,31.734862109375,34.5658400390625C31.734862109375,34.5658400390625,16.293972109374998,34.5658400390625,16.293972109374998,34.5658400390625C12.233122109375,34.5658400390625,8.941162109375,31.2738200390625,8.941162109375,27.2130100390625C8.941162109375,27.2130100390625,8.941162109375,26.4777300390625,8.941162109375,26.4777300390625C8.941162109375,26.4777300390625,8.941162109375,26.4777300390625,8.941162109375,26.4777300390625Z" fill="url(#master_svg2_8779_158911)" fill-opacity="1"/></g></g><g><path d="M20.7802734375,30.2282888671875L31.2948734375,30.2282888671875L31.2948734375,15.9910888671875L28.8321834375,15.9910888671875L28.8321834375,27.7642888671875L20.7802734375,27.7642888671875L20.7802734375,30.2282888671875Z" fill="#F9F6F6" fill-opacity="1"/></g><g><path d="M26.791324609375,25.668896289062502L26.791324609375,12.6636962890625L13.792724609375,12.6636962890625L13.792724609375,25.668896289062502L26.791324609375,25.668896289062502ZM18.195474609375,20.770526289062502L18.195474609375,23.7595962890625L16.028604609375,23.7595962890625L16.028604609375,14.5584862890625L18.195474609375,14.5584862890625L18.195474609375,14.5585562890625L22.807394609375002,14.5585562890625C23.817624609375002,14.5585562890625,24.639524609375,15.4342062890625,24.639524609375,16.5105262890625L24.639524609375,18.818596289062498C24.639524609375,19.8949162890625,23.817624609375002,20.7705662890625,22.807394609375002,20.7705662890625L18.195474609375,20.7705662890625L18.195474609375,20.770526289062502Z" fill="#F9F6F6" fill-opacity="1"/></g><g><path d="M18.2589111328125,16.6551513671875L22.3753511328125,16.6551513671875L22.3753511328125,18.5552413671875L18.2589111328125,18.5552413671875L18.2589111328125,16.6551513671875Z" fill="#F9F6F6" fill-opacity="1"/></g></g></svg>