<svg xmlns="http://www.w3.org/2000/svg" xmlns:xlink="http://www.w3.org/1999/xlink" fill="none" version="1.1" width="33.087646484375" height="38.084716796875" viewBox="0 0 33.087646484375 38.084716796875"><defs><linearGradient x1="0.08888891339302063" y1="0.033333320170640945" x2="0.5" y2="1" id="master_svg0_9949_138181"><stop offset="0.7142857182770967%" stop-color="#5DE7F1" stop-opacity="1"/><stop offset="100%" stop-color="#23D2ED" stop-opacity="1"/></linearGradient><linearGradient x1="-0.6060606241226196" y1="1.558823585510254" x2="0.9545454382896423" y2="-0.17647045850753784" id="master_svg1_9949_138203"><stop offset="0%" stop-color="#ADF4FF" stop-opacity="1"/><stop offset="100%" stop-color="#ADFFF7" stop-opacity="0"/></linearGradient></defs><g><g><g><g><path d="M0,7.35281C0,3.29196,3.29196,0,7.35281,0C7.35281,0,19.3805,0,19.3805,0C21.3305,0,23.2008,0.77467,24.5796,2.15359C24.5796,2.15359,30.9341,8.50801,30.9341,8.50801C32.313,9.88688,33.0876,11.7571,33.0876,13.7072C33.0876,13.7072,33.0876,30.7319,33.0876,30.7319C33.0876,34.7927,29.7956,38.0847,25.7348,38.0847C25.7348,38.0847,7.35281,38.0847,7.35281,38.0847C3.29196,38.0847,0,34.7927,0,30.7319C0,30.7319,0,7.35281,0,7.35281C0,7.35281,0,7.35281,0,7.35281Z" fill="url(#master_svg0_9949_138181)" fill-opacity="1"/></g><g><path d="M2.941162109375,24.4777300390625C2.941162109375,22.0412200390625,4.916342109375,20.0660400390625,7.352852109375,20.0660400390625C7.352852109375,20.0660400390625,25.734862109375,20.0660400390625,25.734862109375,20.0660400390625C28.171362109375,20.0660400390625,30.146562109375,22.0412200390625,30.146562109375,24.4777300390625C30.146562109375,24.4777300390625,30.146562109375,28.1541300390625,30.146562109375,28.1541300390625C30.146562109375,30.5906400390625,28.171362109375,32.5658400390625,25.734862109375,32.5658400390625C25.734862109375,32.5658400390625,10.293972109375,32.5658400390625,10.293972109375,32.5658400390625C6.2331221093749996,32.5658400390625,2.941162109375,29.2738200390625,2.941162109375,25.2130100390625C2.941162109375,25.2130100390625,2.941162109375,24.4777300390625,2.941162109375,24.4777300390625C2.941162109375,24.4777300390625,2.941162109375,24.4777300390625,2.941162109375,24.4777300390625Z" fill="url(#master_svg1_9949_138203)" fill-opacity="1"/></g></g></g><g><rect x="6.12890625" y="12.1046142578125" width="11.8155517578125" height="13.132568359375" rx="2" fill="#FFFFFF" fill-opacity="1"/></g><g><rect x="19.534912109375" y="13.269775390625" width="5.566567897796631" height="2.26743745803833" rx="0.6000000238418579" fill="#FFFFFF" fill-opacity="1"/></g><g><g transform="matrix(0,1,-1,0,29.089377880096436,3.10414457321167)"><rect x="12.992616653442383" y="16.096761226654053" width="6.846972942352295" height="1.9116274118423462" rx="0.4000000059604645" fill="#45DFEF" fill-opacity="1"/></g><g transform="matrix(-1,5.400848479553133e-8,-5.400848479553133e-8,-1,30.920411077236942,34.10526788182988)"><rect x="15.460205078125" y="17.052634358406067" width="6.846972942352295" height="1.9116274118423462" rx="0.4000000059604645" fill="#45DFEF" fill-opacity="1"/></g></g><g><rect x="19.534912109375" y="17.5372314453125" width="7.423759460449219" height="2.26743745803833" rx="0.6000000238418579" fill="#FFFFFF" fill-opacity="1"/></g><g><rect x="19.534912109375" y="21.8046875" width="7.423759460449219" height="2.26743745803833" rx="0.6000000238418579" fill="#FFFFFF" fill-opacity="1"/></g></g></svg>