<svg xmlns="http://www.w3.org/2000/svg" xmlns:xlink="http://www.w3.org/1999/xlink" fill="none" version="1.1" width="78.623291015625" height="75.4681396484375" viewBox="0 0 78.623291015625 75.4681396484375"><defs><filter id="master_svg0_8916_159411" filterUnits="objectBoundingBox" color-interpolation-filters="sRGB" x="-8" y="-4" width="82.62324523925781" height="79.46817779541016"><feFlood flood-opacity="0" result="BackgroundImageFix"/><feColorMatrix in="SourceAlpha" type="matrix" values="0 0 0 0 0 0 0 0 0 0 0 0 0 0 0 0 0 0 127 0"/><feOffset dy="4" dx="0"/><feGaussianBlur stdDeviation="2"/><feColorMatrix type="matrix" values="0 0 0 0 0.7803921699523926 0 0 0 0 0.8627451062202454 0 0 0 0 0.9058823585510254 0 0 0 0.10000000149011612 0"/><feBlend mode="normal" in2="BackgroundImageFix" result="effect1_dropShadow"/><feBlend mode="normal" in="SourceGraphic" in2="effect1_dropShadow" result="shape"/></filter><linearGradient x1="-0.20000000298023224" y1="-0.09459458291530609" x2="1" y2="1.3108108043670654" id="master_svg1_8837_173679"><stop offset="0%" stop-color="#4FB6FF" stop-opacity="1"/><stop offset="100%" stop-color="#357FFF" stop-opacity="1"/></linearGradient><linearGradient x1="-0.20000000298023224" y1="-0.09459458291530609" x2="1" y2="1.3108108043670654" id="master_svg2_8837_173475"><stop offset="0%" stop-color="#71BAFF" stop-opacity="1"/><stop offset="100%" stop-color="#507FFF" stop-opacity="1"/></linearGradient><linearGradient x1="-0.43243247270584106" y1="3.8202692564937024e-8" x2="1" y2="1.310810923576355" id="master_svg3_8837_173781"><stop offset="0%" stop-color="#B2D1FF" stop-opacity="1"/><stop offset="97.85714149475098%" stop-color="#3A92FF" stop-opacity="0"/></linearGradient></defs><g><g><g filter="url(#master_svg0_8916_159411)"><g><path d="M6,16.104C6,8.314589999999999,12.62849,2,20.8052,2C20.8052,2,37.0908,2,37.0908,2C45.2674,2,51.896,8.314589999999999,51.896,16.104C51.896,16.104,51.896,51.3641,51.896,51.3641C51.896,59.1535,45.2674,65.4682,37.0908,65.4682C37.0908,65.4682,20.8052,65.4682,20.8052,65.4682C12.62849,65.4682,6,59.1535,6,51.3641C6,51.3641,6,16.104,6,16.104C6,16.104,6,16.104,6,16.104Z" fill="url(#master_svg1_8837_173679)" fill-opacity="0.4000000059604645"/></g><g><path d="M6,25.494256396484374C6,17.317556396484374,12.62849,10.689056396484375,20.8052,10.689056396484375C20.8052,10.689056396484375,57.8181,10.689056396484375,57.8181,10.689056396484375C65.9947,10.689056396484375,72.6232,17.317556396484374,72.6232,25.494256396484374C72.6232,25.494256396484374,72.6232,50.66305639648437,72.6232,50.66305639648437C72.6232,58.83965639648437,65.9947,65.46815639648437,57.8181,65.46815639648437C57.8181,65.46815639648437,20.8052,65.46815639648437,20.8052,65.46815639648437C12.62849,65.46815639648437,6,58.83965639648437,6,50.66305639648437C6,50.66305639648437,6,25.494256396484374,6,25.494256396484374C6,25.494256396484374,6,25.494256396484374,6,25.494256396484374Z" fill="url(#master_svg2_8837_173475)" fill-opacity="1"/></g><g><path d="M11.922066688537598,43.2604193359375C11.922066688537598,38.3544193359375,15.899166688537598,34.3773193359375,20.805166688537597,34.3773193359375C20.805166688537597,34.3773193359375,57.8180666885376,34.3773193359375,57.8180666885376,34.3773193359375C62.7240666885376,34.3773193359375,66.7011666885376,38.3544193359375,66.7011666885376,43.2604193359375C66.7011666885376,43.2604193359375,66.7011666885376,50.6630193359375,66.7011666885376,50.6630193359375C66.7011666885376,55.5690193359375,62.7240666885376,59.546119335937505,57.8180666885376,59.546119335937505C57.8180666885376,59.546119335937505,26.727266688537597,59.546119335937505,26.727266688537597,59.546119335937505C18.550556688537597,59.546119335937505,11.922066688537598,52.9175193359375,11.922066688537598,44.7409193359375C11.922066688537598,44.7409193359375,11.922066688537598,43.2604193359375,11.922066688537598,43.2604193359375C11.922066688537598,43.2604193359375,11.922066688537598,43.2604193359375,11.922066688537598,43.2604193359375Z" fill="url(#master_svg3_8837_173781)" fill-opacity="1"/></g></g></g><g><g><path d="M39.392184453125,33.81024169921875L47.443564453125,41.86136169921875L44.223064453125,45.08184169921875L41.669364453125,42.528351699218746L41.669364453125,53.47514169921875L37.114964453125,53.47514169921875L37.114964453125,42.528351699218746L34.561514453125,45.08184169921875L31.341064453125,41.86136169921875L39.392184453125,33.81024169921875Z" fill="#FFFFFF" fill-opacity="1"/></g><g><path d="M48.761961328125,50.6617662109375L47.256561328125,50.6617662109375L47.256261328125,50.6540662109375L47.253761328125,50.6540662109375C46.105861328125,50.5593662109375,45.199261328125004,49.6129662109375,45.167361328125,48.4483662109375L45.166461328124996,48.3845662109375C45.166461328124996,47.2122662109375,46.052361328125,46.2467662109375,47.191361328125,46.1210662109375L47.256261328125,46.1148662109375L47.256261328125,46.1073662109375L48.743561328125,46.1073662109375L48.847361328125004,46.106666210937505C51.640661328125,46.0613662109375,53.885761328125,43.7816662109375,53.885761328125,40.9835662109375C53.885761328125,38.1539662109375,51.591661328125,35.8598662109375,48.761961328125,35.8598662109375C48.657961328125,35.8598662109375,48.554061328125,35.863066210937504,48.451361328125,35.8689662109375L48.297461328124996,35.8803662109375L46.491561328125,36.0422662109375L45.929361328125,34.3188662109375C44.732261328125,30.6502662109375,41.297461328124996,28.1173062109375,37.375861328125,28.1173062109375C32.457761328125,28.1173062109375,28.461471328125,32.0644162109375,28.382001328125,36.9463662109375L28.380861328125,37.0945662109375L28.393381328125002,38.7079662109375L26.923891328125002,39.2749662109375C25.632401328125,39.7736662109375,24.769341328125,41.0022662109375,24.738211328125,42.386366210937496L24.737301328125,42.4637662109375L24.737301328125,42.691566210937495C24.737301328125,44.577966210937504,26.266691328125,46.1073662109375,28.153141328125,46.1073662109375L31.341261328125,46.1064662109375C32.598961328125,46.1064662109375,33.618461328125,47.1259662109375,33.618461328125,48.3836662109375C33.618461328125,49.6411662109375,32.598961328125,50.6608662109375,31.341261328125,50.6608662109375L28.153141328125,50.6617662109375C23.795221328125,50.6617662109375,20.254366128125,47.164466210937505,20.184000128125,42.8233662109375L20.182861328125,42.691566210937495L20.182861328125,42.4637662109375C20.182338417125,39.7494662109375,21.563321328125,37.221366210937504,23.847591328125,35.7550662109375L23.897011328125,35.7234662109375L23.914091328125,35.5633662109375C24.674451328125002,28.8822262109375,30.293761328125,23.6758172109375,37.151761328125005,23.5646884309375L37.375861328125,23.5628662109375C42.692061328125,23.5628662109375,47.412961328125,26.6521462109375,49.619361328124995,31.3008662109375L49.640061328125,31.344816210937502L49.712461328125,31.3516462109375C54.559361328125,31.8239462109375,58.358661328125,35.8719662109375,58.438861328125,40.8235662109375L58.440161328125,40.9835662109375C58.440161328125,46.2164662109375,54.284261328125,50.4887662109375,49.061461328125,50.656766210937505L48.902761328124996,50.6606662109375L48.761961328125,50.6617662109375Z" fill="#FFFFFF" fill-opacity="1"/></g></g></g></svg>