<svg xmlns="http://www.w3.org/2000/svg" xmlns:xlink="http://www.w3.org/1999/xlink" fill="none" version="1.1" width="72.21240234375" height="81.3060302734375" viewBox="0 0 72.21240234375 81.3060302734375"><defs><filter id="master_svg0_8837_173326" filterUnits="objectBoundingBox" color-interpolation-filters="sRGB" x="-8" y="-4" width="76.21240615844727" height="85.3060073852539"><feFlood flood-opacity="0" result="BackgroundImageFix"/><feColorMatrix in="SourceAlpha" type="matrix" values="0 0 0 0 0 0 0 0 0 0 0 0 0 0 0 0 0 0 127 0"/><feOffset dy="4" dx="0"/><feGaussianBlur stdDeviation="2"/><feColorMatrix type="matrix" values="0 0 0 0 0.39148372411727905 0 0 0 0 0.16468748450279236 0 0 0 0 0.637499988079071 0 0 0 0.10000000149011612 0"/><feBlend mode="normal" in2="BackgroundImageFix" result="effect1_dropShadow"/><feBlend mode="normal" in="SourceGraphic" in2="effect1_dropShadow" result="shape"/></filter><linearGradient x1="0.08888891339302063" y1="0.033333320170640945" x2="0.5" y2="1" id="master_svg1_8779_158328"><stop offset="0%" stop-color="#C38CFD" stop-opacity="1"/><stop offset="100%" stop-color="#B672FF" stop-opacity="1"/></linearGradient><linearGradient x1="-0.6060606241226196" y1="1.558823585510254" x2="0.9545454382896423" y2="-0.17647045850753784" id="master_svg2_8779_158072"><stop offset="0%" stop-color="#D5ADFF" stop-opacity="1"/><stop offset="100%" stop-color="#D5ADFF" stop-opacity="0"/></linearGradient><linearGradient x1="0.5" y1="-3.0616171314629196e-17" x2="0.5" y2="1" id="master_svg3_8779_158069"><stop offset="0%" stop-color="#FFFFFF" stop-opacity="1"/><stop offset="100%" stop-color="#FFFFFF" stop-opacity="0.800000011920929"/></linearGradient></defs><g><g filter="url(#master_svg0_8837_173326)"><path d="M6,15.3805C6,7.99067,11.99067,2,19.380499999999998,2C19.380499999999998,2,41.2683,2,41.2683,2C44.8169,2,48.2204,3.4097299999999997,50.7297,5.91907C50.7297,5.91907,62.2934,17.482799999999997,62.2934,17.482799999999997C64.8026,19.992,66.2124,23.3955,66.2124,26.9441C66.2124,26.9441,66.2124,57.9255,66.2124,57.9255C66.2124,65.31530000000001,60.2217,71.306,52.8319,71.306C52.8319,71.306,19.380499999999998,71.306,19.380499999999998,71.306C11.99067,71.306,6,65.31530000000001,6,57.9255C6,57.9255,6,15.3805,6,15.3805C6,15.3805,6,15.3805,6,15.3805Z" fill="url(#master_svg1_8779_158328)" fill-opacity="1"/></g><g><path d="M11.352283000946045,46.54420439941406C11.352283000946045,42.11028439941406,14.946683000946045,38.51588439941406,19.380603000946046,38.51588439941406C19.380603000946046,38.51588439941406,52.831983000946046,38.51588439941406,52.831983000946046,38.51588439941406C57.26588300094605,38.51588439941406,60.86028300094605,42.11028439941406,60.86028300094605,46.54420439941406C60.86028300094605,46.54420439941406,60.86028300094605,53.234484399414065,60.86028300094605,53.234484399414065C60.86028300094605,57.668384399414066,57.26588300094605,61.26278439941406,52.831983000946046,61.26278439941406C52.831983000946046,61.26278439941406,24.732783000946043,61.26278439941406,24.732783000946043,61.26278439941406C17.342953000946046,61.26278439941406,11.352283000946045,55.27208439941406,11.352283000946045,47.882254399414066C11.352283000946045,47.882254399414066,11.352283000946045,46.54420439941406,11.352283000946045,46.54420439941406C11.352283000946045,46.54420439941406,11.352283000946045,46.54420439941406,11.352283000946045,46.54420439941406Z" fill="url(#master_svg2_8779_158072)" fill-opacity="1"/></g><g><path d="M41.4584611907959,32.01680375061035C41.4584611907959,33.12530375061035,42.3571611907959,34.02390375061035,43.465561190795896,34.02390375061035C44.5740611907959,34.02390375061035,45.4726611907959,33.12530375061035,45.4726611907959,32.01680375061035C45.4726611907959,32.01680375061035,41.4584611907959,32.01680375061035,41.4584611907959,32.01680375061035C41.4584611907959,32.01680375061035,41.4584611907959,32.01680375061035,41.4584611907959,32.01680375061035ZM25.4018611907959,32.01680375061035C25.4018611907959,33.12530375061035,26.300462190795898,34.02390375061035,27.4089411907959,34.02390375061035C28.517421190795897,34.02390375061035,29.4160211907959,33.12530375061035,29.4160211907959,32.01680375061035C29.4160211907959,32.01680375061035,25.4018611907959,32.01680375061035,25.4018611907959,32.01680375061035C25.4018611907959,32.01680375061035,25.4018611907959,32.01680375061035,25.4018611907959,32.01680375061035ZM31.423101190795897,49.22040375061035C31.423101190795897,49.22040375061035,31.423101190795897,47.21330375061035,31.423101190795897,47.21330375061035C31.423101190795897,47.21330375061035,31.423101190795897,47.21330375061035,31.423101190795897,47.21330375061035C31.423101190795897,47.21330375061035,31.423101190795897,49.22040375061035,31.423101190795897,49.22040375061035C31.423101190795897,49.22040375061035,31.423101190795897,49.22040375061035,31.423101190795897,49.22040375061035ZM39.4514611907959,49.22040375061035C39.4514611907959,49.22040375061035,39.4514611907959,51.22740375061035,39.4514611907959,51.22740375061035C39.4514611907959,51.22740375061035,39.4514611907959,51.22740375061035,39.4514611907959,51.22740375061035C39.4514611907959,51.22740375061035,39.4514611907959,49.22040375061035,39.4514611907959,49.22040375061035C39.4514611907959,49.22040375061035,39.4514611907959,49.22040375061035,39.4514611907959,49.22040375061035ZM27.4089411907959,45.39740375061035C27.4089411907959,45.39740375061035,29.4160211907959,45.39740375061035,29.4160211907959,45.39740375061035C29.4160211907959,45.39740375061035,27.4089411907959,45.39740375061035,27.4089411907959,45.39740375061035C27.4089411907959,45.39740375061035,27.4089411907959,45.39740375061035,27.4089411907959,45.39740375061035ZM29.4160211907959,39.66280375061035C29.4160211907959,38.55430375061035,28.517421190795897,37.65570375061035,27.4089411907959,37.65570375061035C26.3004631907959,37.65570375061035,25.4018611907959,38.55430375061035,25.4018611907959,39.66280375061035C25.4018611907959,39.66280375061035,29.4160211907959,39.66280375061035,29.4160211907959,39.66280375061035C29.4160211907959,39.66280375061035,29.4160211907959,39.66280375061035,29.4160211907959,39.66280375061035ZM45.4726611907959,39.66280375061035C45.4726611907959,38.55430375061035,44.5740611907959,37.65570375061035,43.465561190795896,37.65570375061035C42.3571611907959,37.65570375061035,41.4584611907959,38.55430375061035,41.4584611907959,39.66280375061035C41.4584611907959,39.66280375061035,45.4726611907959,39.66280375061035,45.4726611907959,39.66280375061035C45.4726611907959,39.66280375061035,45.4726611907959,39.66280375061035,45.4726611907959,39.66280375061035ZM43.465561190795896,45.39740375061035C43.465561190795896,45.39740375061035,45.4726611907959,45.39740375061035,45.4726611907959,45.39740375061035C45.4726611907959,45.39740375061035,45.4726611907959,45.39740375061035,45.4726611907959,45.39740375061035C45.4726611907959,45.39740375061035,43.465561190795896,45.39740375061035,43.465561190795896,45.39740375061035C43.465561190795896,45.39740375061035,43.465561190795896,45.39740375061035,43.465561190795896,45.39740375061035ZM37.4443611907959,30.10531375061035C37.4443611907959,28.996823750610353,36.5457611907959,28.09823375061035,35.437261190795894,28.09823375061035C34.3287811907959,28.09823375061035,33.4301811907959,28.996823750610353,33.4301811907959,30.10531375061035C33.4301811907959,30.10531375061035,37.4443611907959,30.10531375061035,37.4443611907959,30.10531375061035C37.4443611907959,30.10531375061035,37.4443611907959,30.10531375061035,37.4443611907959,30.10531375061035ZM33.4301811907959,41.574303750610355C33.4301811907959,42.68280375061035,34.3287811907959,43.58140375061035,35.437261190795894,43.58140375061035C36.5457611907959,43.58140375061035,37.4443611907959,42.68280375061035,37.4443611907959,41.574303750610355C37.4443611907959,41.574303750610355,33.4301811907959,41.574303750610355,33.4301811907959,41.574303750610355C33.4301811907959,41.574303750610355,33.4301811907959,41.574303750610355,33.4301811907959,41.574303750610355ZM39.4514611907959,20.45220375061035C39.4514611907959,20.45220375061035,31.423101190795897,20.45220375061035,31.423101190795897,20.45220375061035C31.423101190795897,20.45220375061035,31.423101190795897,24.466363750610352,31.423101190795897,24.466363750610352C31.423101190795897,24.466363750610352,39.4514611907959,24.466363750610352,39.4514611907959,24.466363750610352C39.4514611907959,24.466363750610352,39.4514611907959,20.45220375061035,39.4514611907959,20.45220375061035C39.4514611907959,20.45220375061035,39.4514611907959,20.45220375061035,39.4514611907959,20.45220375061035ZM41.4584611907959,26.28229375061035C41.4584611907959,26.28229375061035,41.4584611907959,32.01680375061035,41.4584611907959,32.01680375061035C41.4584611907959,32.01680375061035,45.4726611907959,32.01680375061035,45.4726611907959,32.01680375061035C45.4726611907959,32.01680375061035,45.4726611907959,26.28229375061035,45.4726611907959,26.28229375061035C45.4726611907959,26.28229375061035,41.4584611907959,26.28229375061035,41.4584611907959,26.28229375061035C41.4584611907959,26.28229375061035,41.4584611907959,26.28229375061035,41.4584611907959,26.28229375061035ZM29.4160211907959,32.01680375061035C29.4160211907959,32.01680375061035,29.4160211907959,26.28229375061035,29.4160211907959,26.28229375061035C29.4160211907959,26.28229375061035,25.4018611907959,26.28229375061035,25.4018611907959,26.28229375061035C25.4018611907959,26.28229375061035,25.4018611907959,32.01680375061035,25.4018611907959,32.01680375061035C25.4018611907959,32.01680375061035,29.4160211907959,32.01680375061035,29.4160211907959,32.01680375061035C29.4160211907959,32.01680375061035,29.4160211907959,32.01680375061035,29.4160211907959,32.01680375061035ZM39.4514611907959,24.466363750610352C40.6532611907959,24.466363750610352,41.4584611907959,25.370543750610352,41.4584611907959,26.28229375061035C41.4584611907959,26.28229375061035,45.4726611907959,26.28229375061035,45.4726611907959,26.28229375061035C45.4726611907959,22.97127375061035,42.683461190795896,20.45220375061035,39.4514611907959,20.45220375061035C39.4514611907959,20.45220375061035,39.4514611907959,24.466363750610352,39.4514611907959,24.466363750610352C39.4514611907959,24.466363750610352,39.4514611907959,24.466363750610352,39.4514611907959,24.466363750610352ZM31.423101190795897,20.45220375061035C28.1910711907959,20.45220375061035,25.4018611907959,22.97127375061035,25.4018611907959,26.28229375061035C25.4018611907959,26.28229375061035,29.4160211907959,26.28229375061035,29.4160211907959,26.28229375061035C29.4160211907959,25.370543750610352,30.221221190795898,24.466363750610352,31.423101190795897,24.466363750610352C31.423101190795897,24.466363750610352,31.423101190795897,20.45220375061035,31.423101190795897,20.45220375061035C31.423101190795897,20.45220375061035,31.423101190795897,20.45220375061035,31.423101190795897,20.45220375061035ZM31.423101190795897,51.22740375061035C31.423101190795897,51.22740375061035,39.4514611907959,51.22740375061035,39.4514611907959,51.22740375061035C39.4514611907959,51.22740375061035,39.4514611907959,47.21330375061035,39.4514611907959,47.21330375061035C39.4514611907959,47.21330375061035,31.423101190795897,47.21330375061035,31.423101190795897,47.21330375061035C31.423101190795897,47.21330375061035,31.423101190795897,51.22740375061035,31.423101190795897,51.22740375061035C31.423101190795897,51.22740375061035,31.423101190795897,51.22740375061035,31.423101190795897,51.22740375061035ZM29.4160211907959,45.39740375061035C29.4160211907959,45.39740375061035,29.4160211907959,39.66280375061035,29.4160211907959,39.66280375061035C29.4160211907959,39.66280375061035,25.4018611907959,39.66280375061035,25.4018611907959,39.66280375061035C25.4018611907959,39.66280375061035,25.4018611907959,45.39740375061035,25.4018611907959,45.39740375061035C25.4018611907959,45.39740375061035,29.4160211907959,45.39740375061035,29.4160211907959,45.39740375061035C29.4160211907959,45.39740375061035,29.4160211907959,45.39740375061035,29.4160211907959,45.39740375061035ZM41.4584611907959,39.66280375061035C41.4584611907959,39.66280375061035,41.4584611907959,45.39740375061035,41.4584611907959,45.39740375061035C41.4584611907959,45.39740375061035,45.4726611907959,45.39740375061035,45.4726611907959,45.39740375061035C45.4726611907959,45.39740375061035,45.4726611907959,39.66280375061035,45.4726611907959,39.66280375061035C45.4726611907959,39.66280375061035,41.4584611907959,39.66280375061035,41.4584611907959,39.66280375061035C41.4584611907959,39.66280375061035,41.4584611907959,39.66280375061035,41.4584611907959,39.66280375061035ZM31.423101190795897,47.21330375061035C30.221221190795898,47.21330375061035,29.4160211907959,46.30920375061035,29.4160211907959,45.39740375061035C29.4160211907959,45.39740375061035,25.4018611907959,45.39740375061035,25.4018611907959,45.39740375061035C25.4018611907959,48.70840375061035,28.1910711907959,51.22740375061035,31.423101190795897,51.22740375061035C31.423101190795897,51.22740375061035,31.423101190795897,47.21330375061035,31.423101190795897,47.21330375061035C31.423101190795897,47.21330375061035,31.423101190795897,47.21330375061035,31.423101190795897,47.21330375061035ZM39.4514611907959,51.22740375061035C42.683461190795896,51.22740375061035,45.4726611907959,48.70840375061035,45.4726611907959,45.39740375061035C45.4726611907959,45.39740375061035,41.4584611907959,45.39740375061035,41.4584611907959,45.39740375061035C41.4584611907959,46.30920375061035,40.6532611907959,47.21330375061035,39.4514611907959,47.21330375061035C39.4514611907959,47.21330375061035,39.4514611907959,51.22740375061035,39.4514611907959,51.22740375061035C39.4514611907959,51.22740375061035,39.4514611907959,51.22740375061035,39.4514611907959,51.22740375061035ZM33.4301811907959,30.10531375061035C33.4301811907959,30.10531375061035,33.4301811907959,41.574303750610355,33.4301811907959,41.574303750610355C33.4301811907959,41.574303750610355,37.4443611907959,41.574303750610355,37.4443611907959,41.574303750610355C37.4443611907959,41.574303750610355,37.4443611907959,30.10531375061035,37.4443611907959,30.10531375061035C37.4443611907959,30.10531375061035,33.4301811907959,30.10531375061035,33.4301811907959,30.10531375061035C33.4301811907959,30.10531375061035,33.4301811907959,30.10531375061035,33.4301811907959,30.10531375061035Z" fill="url(#master_svg3_8779_158069)" fill-opacity="1"/></g></g></svg>