<svg xmlns="http://www.w3.org/2000/svg" xmlns:xlink="http://www.w3.org/1999/xlink" fill="none" version="1.1" width="31.1153564453125" height="34.002197265625" viewBox="0 0 31.1153564453125 34.002197265625"><defs><filter id="master_svg0_8819_163412" filterUnits="objectBoundingBox" color-interpolation-filters="sRGB" x="-8" y="-4" width="35.115325927734375" height="38.002227783203125"><feFlood flood-opacity="0" result="BackgroundImageFix"/><feColorMatrix in="SourceAlpha" type="matrix" values="0 0 0 0 0 0 0 0 0 0 0 0 0 0 0 0 0 0 127 0"/><feOffset dy="4" dx="0"/><feGaussianBlur stdDeviation="2"/><feColorMatrix type="matrix" values="0 0 0 0 0.39148372411727905 0 0 0 0 0.16468748450279236 0 0 0 0 0.637499988079071 0 0 0 0.10000000149011612 0"/><feBlend mode="normal" in2="BackgroundImageFix" result="effect1_dropShadow"/><feBlend mode="normal" in="SourceGraphic" in2="effect1_dropShadow" result="shape"/></filter><linearGradient x1="0.08888891339302063" y1="0.033333320170640945" x2="0.5" y2="1" id="master_svg1_8819_163323"><stop offset="0%" stop-color="#8991FF" stop-opacity="1"/><stop offset="100%" stop-color="#4F5BFF" stop-opacity="1"/></linearGradient><linearGradient x1="-0.6060606241226196" y1="1.558823585510254" x2="0.9545454382896423" y2="-0.17647045850753784" id="master_svg2_8819_163331"><stop offset="0%" stop-color="#9DA4FF" stop-opacity="1"/><stop offset="100%" stop-color="#99A0FF" stop-opacity="0"/></linearGradient><linearGradient x1="0.5" y1="-3.0616171314629196e-17" x2="0.5" y2="1" id="master_svg3_8779_158138"><stop offset="0%" stop-color="#FCFCFF" stop-opacity="1"/><stop offset="100%" stop-color="#C0C5FF" stop-opacity="1"/></linearGradient></defs><g><g><g><g><g filter="url(#master_svg0_8819_163412)"><path d="M6,6.24785C6,3.90183,7.90183,2,10.24785,2C10.24785,2,17.1964,2,17.1964,2C18.323,2,19.4035,2.447541,20.2001,3.24417C20.2001,3.24417,23.8712,6.91523,23.8712,6.91523C24.6678,7.71183,25.1153,8.79231,25.1153,9.918890000000001C25.1153,9.918890000000001,25.1153,19.7544,25.1153,19.7544C25.1153,22.1004,23.2135,24.0022,20.8675,24.0022C20.8675,24.0022,10.24785,24.0022,10.24785,24.0022C7.90183,24.0022,6,22.1004,6,19.7544C6,19.7544,6,6.24785,6,6.24785C6,6.24785,6,6.24785,6,6.24785Z" fill="url(#master_svg1_8819_163323)" fill-opacity="1"/></g><g><path d="M7.699162006378174,16.141221177062988C7.699162006378174,14.733611177062988,8.840262006378174,13.592511177062988,10.247872006378174,13.592511177062988C10.247872006378174,13.592511177062988,20.867462006378176,13.592511177062988,20.867462006378176,13.592511177062988C22.275062006378175,13.592511177062988,23.416162006378173,14.733611177062988,23.416162006378173,16.141221177062988C23.416162006378173,16.141221177062988,23.416162006378173,18.26515117706299,23.416162006378173,18.26515117706299C23.416162006378173,19.672761177062988,22.275062006378175,20.81386117706299,20.867462006378176,20.81386117706299C20.867462006378176,20.81386117706299,11.947012006378174,20.81386117706299,11.947012006378174,20.81386117706299C9.600992006378174,20.81386117706299,7.699162006378174,18.912011177062986,7.699162006378174,16.56601117706299C7.699162006378174,16.56601117706299,7.699162006378174,16.141221177062988,7.699162006378174,16.141221177062988C7.699162006378174,16.141221177062988,7.699162006378174,16.141221177062988,7.699162006378174,16.141221177062988Z" fill="url(#master_svg2_8819_163331)" fill-opacity="1"/></g></g></g></g><g><path d="M11.623581409454346,16.094250756225584C11.623581409454346,16.094250756225584,11.623581409454346,9.907970756225586,11.623581409454346,9.907970756225586C11.623581409454346,9.074046756225586,12.516192409454346,8.544164756225586,13.248281409454346,8.943489756225587C13.248281409454346,8.943489756225587,18.919031409454345,12.036620756225586,18.919031409454345,12.036620756225586C19.682441409454345,12.453020756225586,19.682441409454345,13.549190756225585,18.919031409454345,13.965590756225586C18.919031409454345,13.965590756225586,13.248281409454346,17.058720756225586,13.248281409454346,17.058720756225586C12.516190409454346,17.458050756225585,11.623581409454346,16.928170756225587,11.623581409454346,16.094250756225584C11.623581409454346,16.094250756225584,11.623581409454346,16.094250756225584,11.623581409454346,16.094250756225584Z" fill="url(#master_svg3_8779_158138)" fill-opacity="1"/></g></g></svg>