<svg xmlns="http://www.w3.org/2000/svg" xmlns:xlink="http://www.w3.org/1999/xlink" fill="none" version="1.1" width="33.087646484375" height="38.084716796875" viewBox="0 0 33.087646484375 38.084716796875"><defs><linearGradient x1="0.08888891339302063" y1="0.033333320170640945" x2="0.5" y2="1" id="master_svg0_8819_163323"><stop offset="0%" stop-color="#8991FF" stop-opacity="1"/><stop offset="100%" stop-color="#4F5BFF" stop-opacity="1"/></linearGradient><linearGradient x1="-0.6060606241226196" y1="1.558823585510254" x2="0.9545454382896423" y2="-0.17647045850753784" id="master_svg1_8819_163331"><stop offset="0%" stop-color="#9DA4FF" stop-opacity="1"/><stop offset="100%" stop-color="#99A0FF" stop-opacity="0"/></linearGradient><linearGradient x1="0.5" y1="-3.0616171314629196e-17" x2="0.5" y2="1" id="master_svg2_8779_158138"><stop offset="0%" stop-color="#FCFCFF" stop-opacity="1"/><stop offset="100%" stop-color="#C0C5FF" stop-opacity="1"/></linearGradient></defs><g><g><g><g><g><path d="M0,7.35281C0,3.29196,3.29196,0,7.35281,0C7.35281,0,19.3805,0,19.3805,0C21.3305,0,23.2008,0.77467,24.5796,2.15359C24.5796,2.15359,30.9341,8.50801,30.9341,8.50801C32.313,9.88688,33.0876,11.7571,33.0876,13.7072C33.0876,13.7072,33.0876,30.7319,33.0876,30.7319C33.0876,34.7927,29.7956,38.0847,25.7348,38.0847C25.7348,38.0847,7.35281,38.0847,7.35281,38.0847C3.29196,38.0847,0,34.7927,0,30.7319C0,30.7319,0,7.35281,0,7.35281C0,7.35281,0,7.35281,0,7.35281Z" fill="url(#master_svg0_8819_163323)" fill-opacity="1"/></g><g><path d="M2.941162109375,24.4777300390625C2.941162109375,22.0412200390625,4.916342109375,20.0660400390625,7.352852109375,20.0660400390625C7.352852109375,20.0660400390625,25.734862109375,20.0660400390625,25.734862109375,20.0660400390625C28.171362109375,20.0660400390625,30.146562109375,22.0412200390625,30.146562109375,24.4777300390625C30.146562109375,24.4777300390625,30.146562109375,28.1541300390625,30.146562109375,28.1541300390625C30.146562109375,30.5906400390625,28.171362109375,32.5658400390625,25.734862109375,32.5658400390625C25.734862109375,32.5658400390625,10.293972109375,32.5658400390625,10.293972109375,32.5658400390625C6.2331221093749996,32.5658400390625,2.941162109375,29.2738200390625,2.941162109375,25.2130100390625C2.941162109375,25.2130100390625,2.941162109375,24.4777300390625,2.941162109375,24.4777300390625C2.941162109375,24.4777300390625,2.941162109375,24.4777300390625,2.941162109375,24.4777300390625Z" fill="url(#master_svg1_8819_163331)" fill-opacity="1"/></g></g></g></g><g><path d="M9.734130859375,24.396435546875C9.734130859375,24.396435546875,9.734130859375,13.688285546875,9.734130859375,13.688285546875C9.734130859375,12.244810546875,11.279190859375,11.327612546875,12.546410859375,12.018824546875C12.546410859375,12.018824546875,22.362230859375,17.372875546875,22.362230859375,17.372875546875C23.683630859375,18.093645546875,23.683630859375,19.991055546875,22.362230859375,20.711825546874998C22.362230859375,20.711825546874998,12.546410859375,26.065835546875,12.546410859375,26.065835546875C11.279190859375,26.757135546875,9.734130859375,25.839935546874997,9.734130859375,24.396435546875C9.734130859375,24.396435546875,9.734130859375,24.396435546875,9.734130859375,24.396435546875Z" fill="url(#master_svg2_8779_158138)" fill-opacity="1"/></g></g></svg>