<svg xmlns="http://www.w3.org/2000/svg" xmlns:xlink="http://www.w3.org/1999/xlink" fill="none" version="1.1" width="33.087646484375" height="38.084716796875" viewBox="0 0 33.087646484375 38.084716796875"><defs><linearGradient x1="0.08888891339302063" y1="0.033333320170640945" x2="0.5" y2="1" id="master_svg0_8783_159568"><stop offset="0%" stop-color="#81BEFF" stop-opacity="1"/><stop offset="100%" stop-color="#5185FC" stop-opacity="1"/></linearGradient><linearGradient x1="-0.6060606241226196" y1="1.558823585510254" x2="0.9545454382896423" y2="-0.17647045850753784" id="master_svg1_8783_159616"><stop offset="0%" stop-color="#ADD2FF" stop-opacity="1"/><stop offset="100%" stop-color="#ADCEFF" stop-opacity="0"/></linearGradient></defs><g><g><g><g><path d="M0,7.35281C0,3.29196,3.29196,0,7.35281,0C7.35281,0,19.3805,0,19.3805,0C21.3305,0,23.2008,0.77467,24.5796,2.15359C24.5796,2.15359,30.9341,8.50801,30.9341,8.50801C32.313,9.88688,33.0876,11.7571,33.0876,13.7072C33.0876,13.7072,33.0876,30.7319,33.0876,30.7319C33.0876,34.7927,29.7956,38.0847,25.7348,38.0847C25.7348,38.0847,7.35281,38.0847,7.35281,38.0847C3.29196,38.0847,0,34.7927,0,30.7319C0,30.7319,0,7.35281,0,7.35281C0,7.35281,0,7.35281,0,7.35281Z" fill="url(#master_svg0_8783_159568)" fill-opacity="1"/></g><g><path d="M2.941162109375,24.4777300390625C2.941162109375,22.0412200390625,4.916342109375,20.0660400390625,7.352852109375,20.0660400390625C7.352852109375,20.0660400390625,25.734862109375,20.0660400390625,25.734862109375,20.0660400390625C28.171362109375,20.0660400390625,30.146562109375,22.0412200390625,30.146562109375,24.4777300390625C30.146562109375,24.4777300390625,30.146562109375,28.1541300390625,30.146562109375,28.1541300390625C30.146562109375,30.5906400390625,28.171362109375,32.5658400390625,25.734862109375,32.5658400390625C25.734862109375,32.5658400390625,10.293972109375,32.5658400390625,10.293972109375,32.5658400390625C6.2331221093749996,32.5658400390625,2.941162109375,29.2738200390625,2.941162109375,25.2130100390625C2.941162109375,25.2130100390625,2.941162109375,24.4777300390625,2.941162109375,24.4777300390625C2.941162109375,24.4777300390625,2.941162109375,24.4777300390625,2.941162109375,24.4777300390625Z" fill="url(#master_svg1_8783_159616)" fill-opacity="1"/></g></g></g><g><rect x="7.9583740234375" y="10.6636962890625" width="17.171010971069336" height="17.171010971069336" rx="4" fill="#FFFFFF" fill-opacity="1"/></g><g><path d="M17.8434585546875,25.23312578125L16.5437685546875,19.11502578125L15.0855685546875,25.23312578125L12.9933685546875,25.23312578125L10.8377685546875,14.898925890083L12.961668554687499,14.898925890083L14.0711685546875,21.33402578125L15.5610685546875,14.89892578125L17.5898585546875,14.89892578125L18.8578585546875,21.33402578125L19.840558554687497,16.73752578125L18.9846585546875,16.73752578125L18.9846585546875,14.898925890083L22.2497685546875,14.898925890083L19.7771585546875,25.23312578125L17.8434585546875,25.23312578125Z" fill="#6FA8FE" fill-opacity="1"/></g></g></svg>